M48
;DRILL file {KiCad 4.0.7} date Sun Dec 17 13:28:55 2017
;FORMAT={3:3/ absolute / metric / suppress leading zeros}
FMAT,2
METRIC,TZ
T1C0.400
T2C0.600
T3C0.800
T4C1.000
T5C2.060
T6C3.302
T7C2.500
%
G90
G05
M71
T1
X46000Y-49250
X47250Y-53250
X52500Y-50250
X52500Y-54000
X52500Y-62000
X52500Y-68000
X52500Y-86000
X52500Y-90000
X52500Y-94000
X52500Y-98000
X52500Y-102000
X52500Y-106000
X52500Y-110000
X52500Y-114000
X52500Y-118000
X52500Y-122000
X52500Y-126000
X52500Y-130000
X53000Y-41750
X54750Y-46750
X58000Y-45750
X58000Y-50000
X58000Y-54000
X58000Y-78000
X58000Y-82000
X58000Y-86000
X58000Y-90000
X58000Y-94000
X58000Y-98000
X58000Y-102000
X58000Y-106000
X58000Y-110000
X58000Y-114000
X58000Y-118000
X58000Y-122000
X58000Y-126000
X58000Y-130000
X58750Y-74500
X59200Y-62100
X59250Y-59750
X59250Y-68000
X59750Y-44500
X60500Y-49000
X62000Y-63900
X62750Y-45500
X62750Y-47750
X63000Y-62500
X66000Y-58500
X68000Y-51250
X68250Y-57000
T2
X43500Y-76000
X52500Y-69750
X59000Y-70000
X61000Y-71500
X61000Y-73000
X61000Y-74500
X62500Y-71500
X62500Y-73000
X62500Y-74500
X65000Y-57500
X65125Y-62000
X69500Y-40750
T3
X44250Y-52210
X44250Y-54750
X44250Y-57290
T4
X50000Y-88000
X52500Y-65500
X52500Y-88000
X67250Y-76000
X68500Y-85500
X68500Y-88000
X73000Y-42300
X73000Y-44840
X73000Y-47380
X73000Y-49920
X73000Y-52460
X73000Y-55000
X73000Y-57540
T5
X50637Y-79035
X63337Y-79035
T6
X45075Y-94275
X45075Y-116500
X68900Y-94275
X68900Y-116500
T7
X43000Y-43000
X46500Y-136000
X66500Y-136000
T0
M30
