G04 #@! TF.FileFunction,Soldermask,Top*
%FSLAX46Y46*%
G04 Gerber Fmt 4.6, Leading zero omitted, Abs format (unit mm)*
G04 Created by KiCad (PCBNEW 4.0.7) date Sun Dec 17 13:28:59 2017*
%MOMM*%
%LPD*%
G01*
G04 APERTURE LIST*
%ADD10C,0.100000*%
%ADD11C,3.900000*%
%ADD12C,4.972000*%
%ADD13R,0.650000X0.800000*%
%ADD14R,0.800000X0.650000*%
%ADD15C,2.900000*%
%ADD16R,1.150000X1.200000*%
%ADD17R,1.200000X1.150000*%
%ADD18R,2.100000X2.100000*%
%ADD19O,2.100000X2.100000*%
%ADD20R,1.300000X0.900000*%
%ADD21R,1.600000X2.600000*%
%ADD22R,6.200000X6.800000*%
%ADD23C,1.920000*%
%ADD24R,1.920000X1.920000*%
%ADD25R,2.900000X1.500000*%
G04 APERTURE END LIST*
D10*
D11*
X63337400Y-79035000D03*
X50637400Y-79035000D03*
D12*
X45074800Y-94275000D03*
X68900000Y-94275000D03*
X68900000Y-116500000D03*
X45074800Y-116500000D03*
D13*
X56000000Y-65725000D03*
D14*
X55825000Y-64550000D03*
X55825000Y-65050000D03*
X57675000Y-64550000D03*
X57675000Y-65050000D03*
D13*
X57500000Y-65725000D03*
X57000000Y-65725000D03*
X56500000Y-65725000D03*
X56000000Y-63875000D03*
X56500000Y-63875000D03*
X57000000Y-63875000D03*
X57500000Y-63875000D03*
D15*
X43000000Y-43000000D03*
X66500000Y-136000000D03*
D16*
X43500000Y-74500000D03*
X43500000Y-73000000D03*
X71000000Y-60500000D03*
X71000000Y-62000000D03*
X66500000Y-60500000D03*
X66500000Y-62000000D03*
X48000000Y-74500000D03*
X48000000Y-73000000D03*
D17*
X56000000Y-68000000D03*
X57500000Y-68000000D03*
X56000000Y-69500000D03*
X57500000Y-69500000D03*
D18*
X73000000Y-57540000D03*
D19*
X73000000Y-55000000D03*
X73000000Y-52460000D03*
X73000000Y-49920000D03*
X73000000Y-47380000D03*
X73000000Y-44840000D03*
X73000000Y-42300000D03*
D20*
X44000000Y-48000000D03*
X44000000Y-46500000D03*
D21*
X71030000Y-65000000D03*
X66470000Y-65000000D03*
D22*
X68750000Y-71300000D03*
D21*
X43500000Y-70000000D03*
X48060000Y-70000000D03*
D22*
X45780000Y-63700000D03*
D23*
X44250000Y-54750000D03*
X44250000Y-52210000D03*
D24*
X44250000Y-57290000D03*
D25*
X49550000Y-41250000D03*
X49550000Y-43250000D03*
X49550000Y-45250000D03*
X49550000Y-47250000D03*
X49550000Y-49250000D03*
X49550000Y-51250000D03*
X49550000Y-53250000D03*
X49550000Y-55250000D03*
X64950000Y-55250000D03*
X64950000Y-53250000D03*
X64950000Y-51250000D03*
X64950000Y-49250000D03*
X64950000Y-47250000D03*
X64950000Y-45250000D03*
X64950000Y-43250000D03*
X64950000Y-41250000D03*
D15*
X46500000Y-136000000D03*
M02*
