G04 #@! TF.FileFunction,Legend,Top*
%FSLAX46Y46*%
G04 Gerber Fmt 4.6, Leading zero omitted, Abs format (unit mm)*
G04 Created by KiCad (PCBNEW 4.0.7) date Sun Dec 17 13:28:59 2017*
%MOMM*%
%LPD*%
G01*
G04 APERTURE LIST*
%ADD10C,0.100000*%
%ADD11C,0.300000*%
%ADD12C,0.200000*%
%ADD13C,0.150000*%
%ADD14C,0.500000*%
%ADD15C,0.120000*%
%ADD16C,0.152400*%
%ADD17C,0.254000*%
G04 APERTURE END LIST*
D10*
D11*
X61428571Y-69607142D02*
X61428571Y-70321428D01*
X59928571Y-70321428D01*
X61428571Y-69107142D02*
X59928571Y-69107142D01*
X61357143Y-68464285D02*
X61428571Y-68249999D01*
X61428571Y-67892856D01*
X61357143Y-67749999D01*
X61285714Y-67678570D01*
X61142857Y-67607142D01*
X61000000Y-67607142D01*
X60857143Y-67678570D01*
X60785714Y-67749999D01*
X60714286Y-67892856D01*
X60642857Y-68178570D01*
X60571429Y-68321428D01*
X60500000Y-68392856D01*
X60357143Y-68464285D01*
X60214286Y-68464285D01*
X60071429Y-68392856D01*
X60000000Y-68321428D01*
X59928571Y-68178570D01*
X59928571Y-67821428D01*
X60000000Y-67607142D01*
X60071429Y-67035714D02*
X60000000Y-66964285D01*
X59928571Y-66821428D01*
X59928571Y-66464285D01*
X60000000Y-66321428D01*
X60071429Y-66249999D01*
X60214286Y-66178571D01*
X60357143Y-66178571D01*
X60571429Y-66249999D01*
X61428571Y-67107142D01*
X61428571Y-66178571D01*
X61428571Y-65535714D02*
X59928571Y-65535714D01*
X59928571Y-65178571D01*
X60000000Y-64964286D01*
X60142857Y-64821428D01*
X60285714Y-64750000D01*
X60571429Y-64678571D01*
X60785714Y-64678571D01*
X61071429Y-64750000D01*
X61214286Y-64821428D01*
X61357143Y-64964286D01*
X61428571Y-65178571D01*
X61428571Y-65535714D01*
X61428571Y-64035714D02*
X59928571Y-64035714D01*
X60642857Y-64035714D02*
X60642857Y-63178571D01*
X61428571Y-63178571D02*
X59928571Y-63178571D01*
X56428571Y-115428571D02*
X56428571Y-115142856D01*
X56357143Y-114999999D01*
X56285714Y-114928571D01*
X56071429Y-114785713D01*
X55785714Y-114714285D01*
X55214286Y-114714285D01*
X55071429Y-114785713D01*
X55000000Y-114857142D01*
X54928571Y-114999999D01*
X54928571Y-115285713D01*
X55000000Y-115428571D01*
X55071429Y-115499999D01*
X55214286Y-115571428D01*
X55571429Y-115571428D01*
X55714286Y-115499999D01*
X55785714Y-115428571D01*
X55857143Y-115285713D01*
X55857143Y-114999999D01*
X55785714Y-114857142D01*
X55714286Y-114785713D01*
X55571429Y-114714285D01*
X54928571Y-114285714D02*
X56428571Y-113785714D01*
X54928571Y-113285714D01*
X55642857Y-111142857D02*
X55714286Y-110928571D01*
X55785714Y-110857143D01*
X55928571Y-110785714D01*
X56142857Y-110785714D01*
X56285714Y-110857143D01*
X56357143Y-110928571D01*
X56428571Y-111071429D01*
X56428571Y-111642857D01*
X54928571Y-111642857D01*
X54928571Y-111142857D01*
X55000000Y-111000000D01*
X55071429Y-110928571D01*
X55214286Y-110857143D01*
X55357143Y-110857143D01*
X55500000Y-110928571D01*
X55571429Y-111000000D01*
X55642857Y-111142857D01*
X55642857Y-111642857D01*
X56428571Y-109500000D02*
X55642857Y-109500000D01*
X55500000Y-109571429D01*
X55428571Y-109714286D01*
X55428571Y-110000000D01*
X55500000Y-110142857D01*
X56357143Y-109500000D02*
X56428571Y-109642857D01*
X56428571Y-110000000D01*
X56357143Y-110142857D01*
X56214286Y-110214286D01*
X56071429Y-110214286D01*
X55928571Y-110142857D01*
X55857143Y-110000000D01*
X55857143Y-109642857D01*
X55785714Y-109500000D01*
X55428571Y-109000000D02*
X55428571Y-108428571D01*
X54928571Y-108785714D02*
X56214286Y-108785714D01*
X56357143Y-108714286D01*
X56428571Y-108571428D01*
X56428571Y-108428571D01*
X55428571Y-108142857D02*
X55428571Y-107571428D01*
X54928571Y-107928571D02*
X56214286Y-107928571D01*
X56357143Y-107857143D01*
X56428571Y-107714285D01*
X56428571Y-107571428D01*
X56357143Y-106500000D02*
X56428571Y-106642857D01*
X56428571Y-106928571D01*
X56357143Y-107071428D01*
X56214286Y-107142857D01*
X55642857Y-107142857D01*
X55500000Y-107071428D01*
X55428571Y-106928571D01*
X55428571Y-106642857D01*
X55500000Y-106500000D01*
X55642857Y-106428571D01*
X55785714Y-106428571D01*
X55928571Y-107142857D01*
X56428571Y-105785714D02*
X55428571Y-105785714D01*
X55714286Y-105785714D02*
X55571429Y-105714286D01*
X55500000Y-105642857D01*
X55428571Y-105500000D01*
X55428571Y-105357143D01*
X55428571Y-105000000D02*
X56428571Y-104642857D01*
X55428571Y-104285715D02*
X56428571Y-104642857D01*
X56785714Y-104785715D01*
X56857143Y-104857143D01*
X56928571Y-105000000D01*
X56428571Y-102571429D02*
X54928571Y-102571429D01*
X55642857Y-102571429D02*
X55642857Y-101714286D01*
X56428571Y-101714286D02*
X54928571Y-101714286D01*
X56428571Y-100785714D02*
X56357143Y-100928572D01*
X56285714Y-101000000D01*
X56142857Y-101071429D01*
X55714286Y-101071429D01*
X55571429Y-101000000D01*
X55500000Y-100928572D01*
X55428571Y-100785714D01*
X55428571Y-100571429D01*
X55500000Y-100428572D01*
X55571429Y-100357143D01*
X55714286Y-100285714D01*
X56142857Y-100285714D01*
X56285714Y-100357143D01*
X56357143Y-100428572D01*
X56428571Y-100571429D01*
X56428571Y-100785714D01*
X56428571Y-99428571D02*
X56357143Y-99571429D01*
X56214286Y-99642857D01*
X54928571Y-99642857D01*
X56428571Y-98214286D02*
X54928571Y-98214286D01*
X56357143Y-98214286D02*
X56428571Y-98357143D01*
X56428571Y-98642857D01*
X56357143Y-98785715D01*
X56285714Y-98857143D01*
X56142857Y-98928572D01*
X55714286Y-98928572D01*
X55571429Y-98857143D01*
X55500000Y-98785715D01*
X55428571Y-98642857D01*
X55428571Y-98357143D01*
X55500000Y-98214286D01*
X56357143Y-96928572D02*
X56428571Y-97071429D01*
X56428571Y-97357143D01*
X56357143Y-97500000D01*
X56214286Y-97571429D01*
X55642857Y-97571429D01*
X55500000Y-97500000D01*
X55428571Y-97357143D01*
X55428571Y-97071429D01*
X55500000Y-96928572D01*
X55642857Y-96857143D01*
X55785714Y-96857143D01*
X55928571Y-97571429D01*
X56428571Y-96214286D02*
X55428571Y-96214286D01*
X55714286Y-96214286D02*
X55571429Y-96142858D01*
X55500000Y-96071429D01*
X55428571Y-95928572D01*
X55428571Y-95785715D01*
X51928572Y-43092857D02*
X52428572Y-43092857D01*
X52642858Y-43878571D02*
X51928572Y-43878571D01*
X51928572Y-42378571D01*
X52642858Y-42378571D01*
X53214286Y-43807143D02*
X53428572Y-43878571D01*
X53785715Y-43878571D01*
X53928572Y-43807143D01*
X54000001Y-43735714D01*
X54071429Y-43592857D01*
X54071429Y-43450000D01*
X54000001Y-43307143D01*
X53928572Y-43235714D01*
X53785715Y-43164286D01*
X53500001Y-43092857D01*
X53357143Y-43021429D01*
X53285715Y-42950000D01*
X53214286Y-42807143D01*
X53214286Y-42664286D01*
X53285715Y-42521429D01*
X53357143Y-42450000D01*
X53500001Y-42378571D01*
X53857143Y-42378571D01*
X54071429Y-42450000D01*
X54714286Y-43878571D02*
X54714286Y-42378571D01*
X55285714Y-42378571D01*
X55428572Y-42450000D01*
X55500000Y-42521429D01*
X55571429Y-42664286D01*
X55571429Y-42878571D01*
X55500000Y-43021429D01*
X55428572Y-43092857D01*
X55285714Y-43164286D01*
X54714286Y-43164286D01*
X56214286Y-43307143D02*
X57357143Y-43307143D01*
X58857143Y-43878571D02*
X58000000Y-43878571D01*
X58428572Y-43878571D02*
X58428572Y-42378571D01*
X58285715Y-42592857D01*
X58142857Y-42735714D01*
X58000000Y-42807143D01*
X59428571Y-42521429D02*
X59500000Y-42450000D01*
X59642857Y-42378571D01*
X60000000Y-42378571D01*
X60142857Y-42450000D01*
X60214286Y-42521429D01*
X60285714Y-42664286D01*
X60285714Y-42807143D01*
X60214286Y-43021429D01*
X59357143Y-43878571D01*
X60285714Y-43878571D01*
X60928571Y-43092857D02*
X61428571Y-43092857D01*
X61642857Y-43878571D02*
X60928571Y-43878571D01*
X60928571Y-42378571D01*
X61642857Y-42378571D01*
X53178572Y-48978571D02*
X53178572Y-47478571D01*
X53678572Y-48550000D01*
X54178572Y-47478571D01*
X54178572Y-48978571D01*
X55107144Y-48978571D02*
X54964286Y-48907143D01*
X54892858Y-48835714D01*
X54821429Y-48692857D01*
X54821429Y-48264286D01*
X54892858Y-48121429D01*
X54964286Y-48050000D01*
X55107144Y-47978571D01*
X55321429Y-47978571D01*
X55464286Y-48050000D01*
X55535715Y-48121429D01*
X55607144Y-48264286D01*
X55607144Y-48692857D01*
X55535715Y-48835714D01*
X55464286Y-48907143D01*
X55321429Y-48978571D01*
X55107144Y-48978571D01*
X56892858Y-48978571D02*
X56892858Y-47478571D01*
X56892858Y-48907143D02*
X56750001Y-48978571D01*
X56464287Y-48978571D01*
X56321429Y-48907143D01*
X56250001Y-48835714D01*
X56178572Y-48692857D01*
X56178572Y-48264286D01*
X56250001Y-48121429D01*
X56321429Y-48050000D01*
X56464287Y-47978571D01*
X56750001Y-47978571D01*
X56892858Y-48050000D01*
X58250001Y-47978571D02*
X58250001Y-48978571D01*
X57607144Y-47978571D02*
X57607144Y-48764286D01*
X57678572Y-48907143D01*
X57821430Y-48978571D01*
X58035715Y-48978571D01*
X58178572Y-48907143D01*
X58250001Y-48835714D01*
X59178573Y-48978571D02*
X59035715Y-48907143D01*
X58964287Y-48764286D01*
X58964287Y-47478571D01*
X60321429Y-48907143D02*
X60178572Y-48978571D01*
X59892858Y-48978571D01*
X59750001Y-48907143D01*
X59678572Y-48764286D01*
X59678572Y-48192857D01*
X59750001Y-48050000D01*
X59892858Y-47978571D01*
X60178572Y-47978571D01*
X60321429Y-48050000D01*
X60392858Y-48192857D01*
X60392858Y-48335714D01*
X59678572Y-48478571D01*
X72678571Y-76071428D02*
X72678571Y-75142857D01*
X73250000Y-75642857D01*
X73250000Y-75428571D01*
X73321429Y-75285714D01*
X73392857Y-75214285D01*
X73535714Y-75142857D01*
X73892857Y-75142857D01*
X74035714Y-75214285D01*
X74107143Y-75285714D01*
X74178571Y-75428571D01*
X74178571Y-75857143D01*
X74107143Y-76000000D01*
X74035714Y-76071428D01*
X72678571Y-74714286D02*
X74178571Y-74214286D01*
X72678571Y-73714286D01*
X72678571Y-73357143D02*
X72678571Y-72428572D01*
X73250000Y-72928572D01*
X73250000Y-72714286D01*
X73321429Y-72571429D01*
X73392857Y-72500000D01*
X73535714Y-72428572D01*
X73892857Y-72428572D01*
X74035714Y-72500000D01*
X74107143Y-72571429D01*
X74178571Y-72714286D01*
X74178571Y-73142858D01*
X74107143Y-73285715D01*
X74035714Y-73357143D01*
X74178571Y-69928572D02*
X74178571Y-70642858D01*
X72678571Y-70642858D01*
X74178571Y-69428572D02*
X72678571Y-69428572D01*
X72678571Y-69071429D01*
X72750000Y-68857144D01*
X72892857Y-68714286D01*
X73035714Y-68642858D01*
X73321429Y-68571429D01*
X73535714Y-68571429D01*
X73821429Y-68642858D01*
X73964286Y-68714286D01*
X74107143Y-68857144D01*
X74178571Y-69071429D01*
X74178571Y-69428572D01*
X72678571Y-67642858D02*
X72678571Y-67357144D01*
X72750000Y-67214286D01*
X72892857Y-67071429D01*
X73178571Y-67000001D01*
X73678571Y-67000001D01*
X73964286Y-67071429D01*
X74107143Y-67214286D01*
X74178571Y-67357144D01*
X74178571Y-67642858D01*
X74107143Y-67785715D01*
X73964286Y-67928572D01*
X73678571Y-68000001D01*
X73178571Y-68000001D01*
X72892857Y-67928572D01*
X72750000Y-67785715D01*
X72678571Y-67642858D01*
X40428571Y-66749999D02*
X40428571Y-67464285D01*
X41142857Y-67535714D01*
X41071429Y-67464285D01*
X41000000Y-67321428D01*
X41000000Y-66964285D01*
X41071429Y-66821428D01*
X41142857Y-66749999D01*
X41285714Y-66678571D01*
X41642857Y-66678571D01*
X41785714Y-66749999D01*
X41857143Y-66821428D01*
X41928571Y-66964285D01*
X41928571Y-67321428D01*
X41857143Y-67464285D01*
X41785714Y-67535714D01*
X40428571Y-66250000D02*
X41928571Y-65750000D01*
X40428571Y-65250000D01*
X41928571Y-62892857D02*
X41928571Y-63607143D01*
X40428571Y-63607143D01*
X41928571Y-62392857D02*
X40428571Y-62392857D01*
X40428571Y-62035714D01*
X40500000Y-61821429D01*
X40642857Y-61678571D01*
X40785714Y-61607143D01*
X41071429Y-61535714D01*
X41285714Y-61535714D01*
X41571429Y-61607143D01*
X41714286Y-61678571D01*
X41857143Y-61821429D01*
X41928571Y-62035714D01*
X41928571Y-62392857D01*
X40428571Y-60607143D02*
X40428571Y-60321429D01*
X40500000Y-60178571D01*
X40642857Y-60035714D01*
X40928571Y-59964286D01*
X41428571Y-59964286D01*
X41714286Y-60035714D01*
X41857143Y-60178571D01*
X41928571Y-60321429D01*
X41928571Y-60607143D01*
X41857143Y-60750000D01*
X41714286Y-60892857D01*
X41428571Y-60964286D01*
X40928571Y-60964286D01*
X40642857Y-60892857D01*
X40500000Y-60750000D01*
X40428571Y-60607143D01*
D12*
X66800000Y-40900000D02*
X66800000Y-54000000D01*
X66900000Y-40900000D02*
X66800000Y-40900000D01*
X67000000Y-40900000D02*
X66900000Y-40900000D01*
X74400000Y-40900000D02*
X67000000Y-40900000D01*
X74400000Y-58900000D02*
X74400000Y-40900000D01*
X66800000Y-58900000D02*
X74400000Y-58900000D01*
X66800000Y-58800000D02*
X66800000Y-58900000D01*
X66800000Y-58700000D02*
X66800000Y-58800000D01*
X66800000Y-54000000D02*
X66800000Y-58700000D01*
D11*
X68157143Y-56750000D02*
X68014286Y-56678571D01*
X67800000Y-56678571D01*
X67585715Y-56750000D01*
X67442857Y-56892857D01*
X67371429Y-57035714D01*
X67300000Y-57321429D01*
X67300000Y-57535714D01*
X67371429Y-57821429D01*
X67442857Y-57964286D01*
X67585715Y-58107143D01*
X67800000Y-58178571D01*
X67942857Y-58178571D01*
X68157143Y-58107143D01*
X68228572Y-58035714D01*
X68228572Y-57535714D01*
X67942857Y-57535714D01*
X68871429Y-58178571D02*
X68871429Y-56678571D01*
X69728572Y-58178571D01*
X69728572Y-56678571D01*
X70442858Y-58178571D02*
X70442858Y-56678571D01*
X70800001Y-56678571D01*
X71014286Y-56750000D01*
X71157144Y-56892857D01*
X71228572Y-57035714D01*
X71300001Y-57321429D01*
X71300001Y-57535714D01*
X71228572Y-57821429D01*
X71157144Y-57964286D01*
X71014286Y-58107143D01*
X70800001Y-58178571D01*
X70442858Y-58178571D01*
X68478572Y-55678571D02*
X67978572Y-54964286D01*
X67621429Y-55678571D02*
X67621429Y-54178571D01*
X68192857Y-54178571D01*
X68335715Y-54250000D01*
X68407143Y-54321429D01*
X68478572Y-54464286D01*
X68478572Y-54678571D01*
X68407143Y-54821429D01*
X68335715Y-54892857D01*
X68192857Y-54964286D01*
X67621429Y-54964286D01*
X68907143Y-54178571D02*
X69764286Y-54178571D01*
X69335715Y-55678571D02*
X69335715Y-54178571D01*
X70192857Y-55607143D02*
X70407143Y-55678571D01*
X70764286Y-55678571D01*
X70907143Y-55607143D01*
X70978572Y-55535714D01*
X71050000Y-55392857D01*
X71050000Y-55250000D01*
X70978572Y-55107143D01*
X70907143Y-55035714D01*
X70764286Y-54964286D01*
X70478572Y-54892857D01*
X70335714Y-54821429D01*
X70264286Y-54750000D01*
X70192857Y-54607143D01*
X70192857Y-54464286D01*
X70264286Y-54321429D01*
X70335714Y-54250000D01*
X70478572Y-54178571D01*
X70835714Y-54178571D01*
X71050000Y-54250000D01*
X67485715Y-53178571D02*
X67485715Y-51678571D01*
X67842858Y-51678571D01*
X68057143Y-51750000D01*
X68200001Y-51892857D01*
X68271429Y-52035714D01*
X68342858Y-52321429D01*
X68342858Y-52535714D01*
X68271429Y-52821429D01*
X68200001Y-52964286D01*
X68057143Y-53107143D01*
X67842858Y-53178571D01*
X67485715Y-53178571D01*
X68771429Y-51678571D02*
X69628572Y-51678571D01*
X69200001Y-53178571D02*
X69200001Y-51678571D01*
X70985715Y-53178571D02*
X70485715Y-52464286D01*
X70128572Y-53178571D02*
X70128572Y-51678571D01*
X70700000Y-51678571D01*
X70842858Y-51750000D01*
X70914286Y-51821429D01*
X70985715Y-51964286D01*
X70985715Y-52178571D01*
X70914286Y-52321429D01*
X70842858Y-52392857D01*
X70700000Y-52464286D01*
X70128572Y-52464286D01*
X68100001Y-50678571D02*
X67600001Y-49964286D01*
X67242858Y-50678571D02*
X67242858Y-49178571D01*
X67814286Y-49178571D01*
X67957144Y-49250000D01*
X68028572Y-49321429D01*
X68100001Y-49464286D01*
X68100001Y-49678571D01*
X68028572Y-49821429D01*
X67957144Y-49892857D01*
X67814286Y-49964286D01*
X67242858Y-49964286D01*
X68600001Y-49178571D02*
X69600001Y-50678571D01*
X69600001Y-49178571D02*
X68600001Y-50678571D01*
X70171429Y-50678571D02*
X70171429Y-49178571D01*
X70528572Y-49178571D01*
X70742857Y-49250000D01*
X70885715Y-49392857D01*
X70957143Y-49535714D01*
X71028572Y-49821429D01*
X71028572Y-50035714D01*
X70957143Y-50321429D01*
X70885715Y-50464286D01*
X70742857Y-50607143D01*
X70528572Y-50678571D01*
X70171429Y-50678571D01*
X67407143Y-46678571D02*
X68264286Y-46678571D01*
X67835715Y-48178571D02*
X67835715Y-46678571D01*
X68621429Y-46678571D02*
X69621429Y-48178571D01*
X69621429Y-46678571D02*
X68621429Y-48178571D01*
X70192857Y-48178571D02*
X70192857Y-46678571D01*
X70550000Y-46678571D01*
X70764285Y-46750000D01*
X70907143Y-46892857D01*
X70978571Y-47035714D01*
X71050000Y-47321429D01*
X71050000Y-47535714D01*
X70978571Y-47821429D01*
X70907143Y-47964286D01*
X70764285Y-48107143D01*
X70550000Y-48178571D01*
X70192857Y-48178571D01*
X67442858Y-44078571D02*
X68371429Y-44078571D01*
X67871429Y-44650000D01*
X68085715Y-44650000D01*
X68228572Y-44721429D01*
X68300001Y-44792857D01*
X68371429Y-44935714D01*
X68371429Y-45292857D01*
X68300001Y-45435714D01*
X68228572Y-45507143D01*
X68085715Y-45578571D01*
X67657143Y-45578571D01*
X67514286Y-45507143D01*
X67442858Y-45435714D01*
X68800000Y-44078571D02*
X69300000Y-45578571D01*
X69800000Y-44078571D01*
X70157143Y-44078571D02*
X71085714Y-44078571D01*
X70585714Y-44650000D01*
X70800000Y-44650000D01*
X70942857Y-44721429D01*
X71014286Y-44792857D01*
X71085714Y-44935714D01*
X71085714Y-45292857D01*
X71014286Y-45435714D01*
X70942857Y-45507143D01*
X70800000Y-45578571D01*
X70371428Y-45578571D01*
X70228571Y-45507143D01*
X70157143Y-45435714D01*
X69614287Y-41678571D02*
X68900001Y-41678571D01*
X68828572Y-42392857D01*
X68900001Y-42321429D01*
X69042858Y-42250000D01*
X69400001Y-42250000D01*
X69542858Y-42321429D01*
X69614287Y-42392857D01*
X69685715Y-42535714D01*
X69685715Y-42892857D01*
X69614287Y-43035714D01*
X69542858Y-43107143D01*
X69400001Y-43178571D01*
X69042858Y-43178571D01*
X68900001Y-43107143D01*
X68828572Y-43035714D01*
X70114286Y-41678571D02*
X70614286Y-43178571D01*
X71114286Y-41678571D01*
D13*
X48097400Y-81575000D02*
X48097400Y-131105000D01*
X65877400Y-131105000D02*
X65877400Y-81575000D01*
X72227400Y-120945000D02*
X70957400Y-120945000D01*
X70957400Y-120945000D02*
X70957400Y-132375000D01*
X70957400Y-132375000D02*
X43017400Y-132375000D01*
X43017400Y-132375000D02*
X43017400Y-120945000D01*
X43017400Y-120945000D02*
X41747400Y-120945000D01*
X65877400Y-79035000D02*
X65877400Y-80305000D01*
X65877400Y-80305000D02*
X70957400Y-80305000D01*
X70957400Y-80305000D02*
X70957400Y-90465000D01*
X70957400Y-90465000D02*
X72227400Y-90465000D01*
X60797400Y-80305000D02*
X60797400Y-79035000D01*
X53177400Y-80305000D02*
X53177400Y-79035000D01*
X60797400Y-80305000D02*
X53177400Y-80305000D01*
X48097400Y-80305000D02*
X43017400Y-80305000D01*
X43017400Y-80305000D02*
X43017400Y-90465000D01*
X43017400Y-90465000D02*
X41747400Y-90465000D01*
X48097400Y-80305000D02*
X48097400Y-79035000D01*
X48097400Y-79035000D02*
X41747400Y-79035000D01*
X60797400Y-79035000D02*
X53177400Y-79035000D01*
X72227400Y-79035000D02*
X65877400Y-79035000D01*
D14*
X50637400Y-82845000D02*
X50637400Y-85385000D01*
X64607400Y-84115000D02*
X62067400Y-84115000D01*
X63337400Y-82845000D02*
X63337400Y-85385000D01*
D13*
X41747400Y-79035000D02*
X41747400Y-133645000D01*
X41747400Y-133645000D02*
X72227400Y-133645000D01*
X72227400Y-79035000D02*
X72227400Y-133645000D01*
D14*
X54337400Y-75225000D02*
X54337400Y-72685000D01*
X60607400Y-73955000D02*
X58067400Y-73955000D01*
X59337400Y-75225000D02*
X59337400Y-72685000D01*
D10*
X57750000Y-63800000D02*
X57750000Y-65800000D01*
X57750000Y-65800000D02*
X55750000Y-65800000D01*
X55750000Y-65800000D02*
X55750000Y-63800000D01*
X55750000Y-63800000D02*
X57750000Y-63800000D01*
D15*
X42900000Y-74100000D02*
X42900000Y-73400000D01*
X44100000Y-73400000D02*
X44100000Y-74100000D01*
X71600000Y-60900000D02*
X71600000Y-61600000D01*
X70400000Y-61600000D02*
X70400000Y-60900000D01*
X67100000Y-60900000D02*
X67100000Y-61600000D01*
X65900000Y-61600000D02*
X65900000Y-60900000D01*
X47400000Y-74100000D02*
X47400000Y-73400000D01*
X48600000Y-73400000D02*
X48600000Y-74100000D01*
X56400000Y-67400000D02*
X57100000Y-67400000D01*
X57100000Y-68600000D02*
X56400000Y-68600000D01*
X56400000Y-68900000D02*
X57100000Y-68900000D01*
X57100000Y-70100000D02*
X56400000Y-70100000D01*
X74330000Y-40970000D02*
X71670000Y-40970000D01*
X74330000Y-56270000D02*
X74330000Y-40970000D01*
X71670000Y-56270000D02*
X71670000Y-40970000D01*
X74330000Y-56270000D02*
X71670000Y-56270000D01*
X74330000Y-57540000D02*
X74330000Y-58870000D01*
X74330000Y-58870000D02*
X73000000Y-58870000D01*
X44680000Y-46750000D02*
X44680000Y-47750000D01*
X43320000Y-47750000D02*
X43320000Y-46750000D01*
X72200000Y-68230000D02*
X72200000Y-66730000D01*
X72200000Y-66730000D02*
X71930000Y-66730000D01*
X71930000Y-66730000D02*
X71930000Y-63900000D01*
X65300000Y-68230000D02*
X65300000Y-66730000D01*
X65300000Y-66730000D02*
X65570000Y-66730000D01*
X65570000Y-66730000D02*
X65570000Y-65630000D01*
X42330000Y-66770000D02*
X42330000Y-68270000D01*
X42330000Y-68270000D02*
X42600000Y-68270000D01*
X42600000Y-68270000D02*
X42600000Y-71100000D01*
X49230000Y-66770000D02*
X49230000Y-68270000D01*
X49230000Y-68270000D02*
X48960000Y-68270000D01*
X48960000Y-68270000D02*
X48960000Y-69370000D01*
X46100000Y-56550000D02*
X46100000Y-52950000D01*
X45372795Y-57074184D02*
G75*
G03X46100000Y-56550000I-1122795J2324184D01*
G01*
X43151193Y-57106400D02*
G75*
G02X41650000Y-54750000I1098807J2356400D01*
G01*
X43151193Y-52393600D02*
G75*
G03X41650000Y-54750000I1098807J-2356400D01*
G01*
X45372795Y-52425816D02*
G75*
G02X46100000Y-52950000I-1122795J-2324184D01*
G01*
D16*
X49234000Y-56109000D02*
X49234000Y-56871000D01*
X49234000Y-56871000D02*
X65236000Y-56871000D01*
X65236000Y-56871000D02*
X65236000Y-56109000D01*
D13*
X66714286Y-77928571D02*
X66857143Y-77976190D01*
X66904762Y-78023810D01*
X66952381Y-78119048D01*
X66952381Y-78261905D01*
X66904762Y-78357143D01*
X66857143Y-78404762D01*
X66761905Y-78452381D01*
X66380952Y-78452381D01*
X66380952Y-77452381D01*
X66714286Y-77452381D01*
X66809524Y-77500000D01*
X66857143Y-77547619D01*
X66904762Y-77642857D01*
X66904762Y-77738095D01*
X66857143Y-77833333D01*
X66809524Y-77880952D01*
X66714286Y-77928571D01*
X66380952Y-77928571D01*
X67238095Y-77452381D02*
X67809524Y-77452381D01*
X67523809Y-78452381D02*
X67523809Y-77452381D01*
X68666667Y-78452381D02*
X68095238Y-78452381D01*
X68380952Y-78452381D02*
X68380952Y-77452381D01*
X68285714Y-77595238D01*
X68190476Y-77690476D01*
X68095238Y-77738095D01*
X53238095Y-64452381D02*
X53238095Y-65261905D01*
X53285714Y-65357143D01*
X53333333Y-65404762D01*
X53428571Y-65452381D01*
X53619048Y-65452381D01*
X53714286Y-65404762D01*
X53761905Y-65357143D01*
X53809524Y-65261905D01*
X53809524Y-64452381D01*
X54761905Y-64452381D02*
X54285714Y-64452381D01*
X54238095Y-64928571D01*
X54285714Y-64880952D01*
X54380952Y-64833333D01*
X54619048Y-64833333D01*
X54714286Y-64880952D01*
X54761905Y-64928571D01*
X54809524Y-65023810D01*
X54809524Y-65261905D01*
X54761905Y-65357143D01*
X54714286Y-65404762D01*
X54619048Y-65452381D01*
X54380952Y-65452381D01*
X54285714Y-65404762D01*
X54238095Y-65357143D01*
X45357143Y-74166666D02*
X45404762Y-74214285D01*
X45452381Y-74357142D01*
X45452381Y-74452380D01*
X45404762Y-74595238D01*
X45309524Y-74690476D01*
X45214286Y-74738095D01*
X45023810Y-74785714D01*
X44880952Y-74785714D01*
X44690476Y-74738095D01*
X44595238Y-74690476D01*
X44500000Y-74595238D01*
X44452381Y-74452380D01*
X44452381Y-74357142D01*
X44500000Y-74214285D01*
X44547619Y-74166666D01*
X45452381Y-73214285D02*
X45452381Y-73785714D01*
X45452381Y-73500000D02*
X44452381Y-73500000D01*
X44595238Y-73595238D01*
X44690476Y-73690476D01*
X44738095Y-73785714D01*
X69857143Y-61666666D02*
X69904762Y-61714285D01*
X69952381Y-61857142D01*
X69952381Y-61952380D01*
X69904762Y-62095238D01*
X69809524Y-62190476D01*
X69714286Y-62238095D01*
X69523810Y-62285714D01*
X69380952Y-62285714D01*
X69190476Y-62238095D01*
X69095238Y-62190476D01*
X69000000Y-62095238D01*
X68952381Y-61952380D01*
X68952381Y-61857142D01*
X69000000Y-61714285D01*
X69047619Y-61666666D01*
X69047619Y-61285714D02*
X69000000Y-61238095D01*
X68952381Y-61142857D01*
X68952381Y-60904761D01*
X69000000Y-60809523D01*
X69047619Y-60761904D01*
X69142857Y-60714285D01*
X69238095Y-60714285D01*
X69380952Y-60761904D01*
X69952381Y-61333333D01*
X69952381Y-60714285D01*
X68357143Y-61666666D02*
X68404762Y-61714285D01*
X68452381Y-61857142D01*
X68452381Y-61952380D01*
X68404762Y-62095238D01*
X68309524Y-62190476D01*
X68214286Y-62238095D01*
X68023810Y-62285714D01*
X67880952Y-62285714D01*
X67690476Y-62238095D01*
X67595238Y-62190476D01*
X67500000Y-62095238D01*
X67452381Y-61952380D01*
X67452381Y-61857142D01*
X67500000Y-61714285D01*
X67547619Y-61666666D01*
X67452381Y-61333333D02*
X67452381Y-60714285D01*
X67833333Y-61047619D01*
X67833333Y-60904761D01*
X67880952Y-60809523D01*
X67928571Y-60761904D01*
X68023810Y-60714285D01*
X68261905Y-60714285D01*
X68357143Y-60761904D01*
X68404762Y-60809523D01*
X68452381Y-60904761D01*
X68452381Y-61190476D01*
X68404762Y-61285714D01*
X68357143Y-61333333D01*
X46857143Y-74166666D02*
X46904762Y-74214285D01*
X46952381Y-74357142D01*
X46952381Y-74452380D01*
X46904762Y-74595238D01*
X46809524Y-74690476D01*
X46714286Y-74738095D01*
X46523810Y-74785714D01*
X46380952Y-74785714D01*
X46190476Y-74738095D01*
X46095238Y-74690476D01*
X46000000Y-74595238D01*
X45952381Y-74452380D01*
X45952381Y-74357142D01*
X46000000Y-74214285D01*
X46047619Y-74166666D01*
X46285714Y-73309523D02*
X46952381Y-73309523D01*
X45904762Y-73547619D02*
X46619048Y-73785714D01*
X46619048Y-73166666D01*
X53833334Y-69857143D02*
X53785715Y-69904762D01*
X53642858Y-69952381D01*
X53547620Y-69952381D01*
X53404762Y-69904762D01*
X53309524Y-69809524D01*
X53261905Y-69714286D01*
X53214286Y-69523810D01*
X53214286Y-69380952D01*
X53261905Y-69190476D01*
X53309524Y-69095238D01*
X53404762Y-69000000D01*
X53547620Y-68952381D01*
X53642858Y-68952381D01*
X53785715Y-69000000D01*
X53833334Y-69047619D01*
X54738096Y-68952381D02*
X54261905Y-68952381D01*
X54214286Y-69428571D01*
X54261905Y-69380952D01*
X54357143Y-69333333D01*
X54595239Y-69333333D01*
X54690477Y-69380952D01*
X54738096Y-69428571D01*
X54785715Y-69523810D01*
X54785715Y-69761905D01*
X54738096Y-69857143D01*
X54690477Y-69904762D01*
X54595239Y-69952381D01*
X54357143Y-69952381D01*
X54261905Y-69904762D01*
X54214286Y-69857143D01*
X53833334Y-68357143D02*
X53785715Y-68404762D01*
X53642858Y-68452381D01*
X53547620Y-68452381D01*
X53404762Y-68404762D01*
X53309524Y-68309524D01*
X53261905Y-68214286D01*
X53214286Y-68023810D01*
X53214286Y-67880952D01*
X53261905Y-67690476D01*
X53309524Y-67595238D01*
X53404762Y-67500000D01*
X53547620Y-67452381D01*
X53642858Y-67452381D01*
X53785715Y-67500000D01*
X53833334Y-67547619D01*
X54690477Y-67452381D02*
X54500000Y-67452381D01*
X54404762Y-67500000D01*
X54357143Y-67547619D01*
X54261905Y-67690476D01*
X54214286Y-67880952D01*
X54214286Y-68261905D01*
X54261905Y-68357143D01*
X54309524Y-68404762D01*
X54404762Y-68452381D01*
X54595239Y-68452381D01*
X54690477Y-68404762D01*
X54738096Y-68357143D01*
X54785715Y-68261905D01*
X54785715Y-68023810D01*
X54738096Y-67928571D01*
X54690477Y-67880952D01*
X54595239Y-67833333D01*
X54404762Y-67833333D01*
X54309524Y-67880952D01*
X54261905Y-67928571D01*
X54214286Y-68023810D01*
X72452381Y-60333333D02*
X73166667Y-60333333D01*
X73309524Y-60380953D01*
X73404762Y-60476191D01*
X73452381Y-60619048D01*
X73452381Y-60714286D01*
X73452381Y-59333333D02*
X73452381Y-59904762D01*
X73452381Y-59619048D02*
X72452381Y-59619048D01*
X72595238Y-59714286D01*
X72690476Y-59809524D01*
X72738095Y-59904762D01*
X45952381Y-47416666D02*
X45476190Y-47750000D01*
X45952381Y-47988095D02*
X44952381Y-47988095D01*
X44952381Y-47607142D01*
X45000000Y-47511904D01*
X45047619Y-47464285D01*
X45142857Y-47416666D01*
X45285714Y-47416666D01*
X45380952Y-47464285D01*
X45428571Y-47511904D01*
X45476190Y-47607142D01*
X45476190Y-47988095D01*
X45952381Y-46464285D02*
X45952381Y-47035714D01*
X45952381Y-46750000D02*
X44952381Y-46750000D01*
X45095238Y-46845238D01*
X45190476Y-46940476D01*
X45238095Y-47035714D01*
X67988095Y-63702381D02*
X67988095Y-64511905D01*
X68035714Y-64607143D01*
X68083333Y-64654762D01*
X68178571Y-64702381D01*
X68369048Y-64702381D01*
X68464286Y-64654762D01*
X68511905Y-64607143D01*
X68559524Y-64511905D01*
X68559524Y-63702381D01*
X69559524Y-64702381D02*
X68988095Y-64702381D01*
X69273809Y-64702381D02*
X69273809Y-63702381D01*
X69178571Y-63845238D01*
X69083333Y-63940476D01*
X68988095Y-63988095D01*
X44988095Y-69202381D02*
X44988095Y-70011905D01*
X45035714Y-70107143D01*
X45083333Y-70154762D01*
X45178571Y-70202381D01*
X45369048Y-70202381D01*
X45464286Y-70154762D01*
X45511905Y-70107143D01*
X45559524Y-70011905D01*
X45559524Y-69202381D01*
X45988095Y-69297619D02*
X46035714Y-69250000D01*
X46130952Y-69202381D01*
X46369048Y-69202381D01*
X46464286Y-69250000D01*
X46511905Y-69297619D01*
X46559524Y-69392857D01*
X46559524Y-69488095D01*
X46511905Y-69630952D01*
X45940476Y-70202381D01*
X46559524Y-70202381D01*
X46452381Y-55511905D02*
X47261905Y-55511905D01*
X47357143Y-55464286D01*
X47404762Y-55416667D01*
X47452381Y-55321429D01*
X47452381Y-55130952D01*
X47404762Y-55035714D01*
X47357143Y-54988095D01*
X47261905Y-54940476D01*
X46452381Y-54940476D01*
X46785714Y-54035714D02*
X47452381Y-54035714D01*
X46404762Y-54273810D02*
X47119048Y-54511905D01*
X47119048Y-53892857D01*
X62238095Y-57452381D02*
X62238095Y-58261905D01*
X62285714Y-58357143D01*
X62333333Y-58404762D01*
X62428571Y-58452381D01*
X62619048Y-58452381D01*
X62714286Y-58404762D01*
X62761905Y-58357143D01*
X62809524Y-58261905D01*
X62809524Y-57452381D01*
X63190476Y-57452381D02*
X63809524Y-57452381D01*
X63476190Y-57833333D01*
X63619048Y-57833333D01*
X63714286Y-57880952D01*
X63761905Y-57928571D01*
X63809524Y-58023810D01*
X63809524Y-58261905D01*
X63761905Y-58357143D01*
X63714286Y-58404762D01*
X63619048Y-58452381D01*
X63333333Y-58452381D01*
X63238095Y-58404762D01*
X63190476Y-58357143D01*
D17*
G36*
X74373000Y-58873000D02*
X71627000Y-58873000D01*
X71627000Y-40927000D01*
X74373000Y-40927000D01*
X74373000Y-58873000D01*
X74373000Y-58873000D01*
G37*
X74373000Y-58873000D02*
X71627000Y-58873000D01*
X71627000Y-40927000D01*
X74373000Y-40927000D01*
X74373000Y-58873000D01*
M02*
