G04 #@! TF.FileFunction,Copper,L1,Top,Signal*
%FSLAX46Y46*%
G04 Gerber Fmt 4.6, Leading zero omitted, Abs format (unit mm)*
G04 Created by KiCad (PCBNEW 4.0.7) date Sun Dec 17 13:28:59 2017*
%MOMM*%
%LPD*%
G01*
G04 APERTURE LIST*
%ADD10C,0.100000*%
%ADD11C,3.500000*%
%ADD12C,4.572000*%
%ADD13R,0.250000X0.400000*%
%ADD14R,0.400000X0.250000*%
%ADD15R,0.750000X0.800000*%
%ADD16R,0.800000X0.750000*%
%ADD17R,1.700000X1.700000*%
%ADD18O,1.700000X1.700000*%
%ADD19R,0.900000X0.500000*%
%ADD20R,1.200000X2.200000*%
%ADD21R,5.800000X6.400000*%
%ADD22R,2.750000X3.050000*%
%ADD23C,1.520000*%
%ADD24R,1.520000X1.520000*%
%ADD25R,2.500000X1.100000*%
%ADD26C,0.600000*%
%ADD27C,1.000000*%
%ADD28C,2.000000*%
%ADD29C,0.700000*%
%ADD30C,1.000000*%
%ADD31C,2.000000*%
%ADD32C,0.400000*%
%ADD33C,0.600000*%
%ADD34C,0.250000*%
%ADD35C,0.500000*%
%ADD36C,3.000000*%
%ADD37C,0.300000*%
%ADD38C,0.254000*%
G04 APERTURE END LIST*
D10*
D11*
X63337400Y-79035000D03*
X50637400Y-79035000D03*
D12*
X45074800Y-94275000D03*
X68900000Y-94275000D03*
X68900000Y-116500000D03*
X45074800Y-116500000D03*
D13*
X56000000Y-65725000D03*
D14*
X55825000Y-64550000D03*
X55825000Y-65050000D03*
X57675000Y-64550000D03*
X57675000Y-65050000D03*
D13*
X57500000Y-65725000D03*
X57000000Y-65725000D03*
X56500000Y-65725000D03*
X56000000Y-63875000D03*
X56500000Y-63875000D03*
X57000000Y-63875000D03*
X57500000Y-63875000D03*
D15*
X43500000Y-74500000D03*
X43500000Y-73000000D03*
X71000000Y-60500000D03*
X71000000Y-62000000D03*
X66500000Y-60500000D03*
X66500000Y-62000000D03*
X48000000Y-74500000D03*
X48000000Y-73000000D03*
D16*
X56000000Y-68000000D03*
X57500000Y-68000000D03*
X56000000Y-69500000D03*
X57500000Y-69500000D03*
D17*
X73000000Y-57540000D03*
D18*
X73000000Y-55000000D03*
X73000000Y-52460000D03*
X73000000Y-49920000D03*
X73000000Y-47380000D03*
X73000000Y-44840000D03*
X73000000Y-42300000D03*
D19*
X44000000Y-48000000D03*
X44000000Y-46500000D03*
D20*
X71030000Y-65000000D03*
X66470000Y-65000000D03*
D21*
X68750000Y-71300000D03*
D22*
X67225000Y-72975000D03*
X70275000Y-69625000D03*
X70275000Y-72975000D03*
X67225000Y-69625000D03*
D20*
X43500000Y-70000000D03*
X48060000Y-70000000D03*
D21*
X45780000Y-63700000D03*
D22*
X47305000Y-62025000D03*
X44255000Y-65375000D03*
X44255000Y-62025000D03*
X47305000Y-65375000D03*
D23*
X44250000Y-54750000D03*
X44250000Y-52210000D03*
D24*
X44250000Y-57290000D03*
D25*
X49550000Y-41250000D03*
X49550000Y-43250000D03*
X49550000Y-45250000D03*
X49550000Y-47250000D03*
X49550000Y-49250000D03*
X49550000Y-51250000D03*
X49550000Y-53250000D03*
X49550000Y-55250000D03*
X64950000Y-55250000D03*
X64950000Y-53250000D03*
X64950000Y-51250000D03*
X64950000Y-49250000D03*
X64950000Y-47250000D03*
X64950000Y-45250000D03*
X64950000Y-43250000D03*
X64950000Y-41250000D03*
D26*
X59200000Y-62100000D03*
D27*
X59000000Y-70000000D03*
D28*
X68500000Y-85500000D03*
X50000000Y-88000000D03*
D26*
X52500000Y-110000000D03*
X58000000Y-110000000D03*
X52500000Y-86000000D03*
X58000000Y-86000000D03*
X58000000Y-45750000D03*
D27*
X43500000Y-76000000D03*
D26*
X59750000Y-44500000D03*
X53000000Y-41750000D03*
D27*
X52500000Y-69750000D03*
D26*
X59250000Y-68000000D03*
D28*
X67250000Y-76000000D03*
X68500000Y-88000000D03*
X52500000Y-88000000D03*
X52500000Y-65500000D03*
D26*
X52500000Y-68000000D03*
X52500000Y-50250000D03*
X58000000Y-50000000D03*
X52500000Y-54000000D03*
X58000000Y-54000000D03*
X59250000Y-59750000D03*
X52500000Y-62000000D03*
X58750000Y-74500000D03*
X58000000Y-78000000D03*
X58000000Y-82000000D03*
X52500000Y-90000000D03*
X58000000Y-90000000D03*
X52500000Y-130000000D03*
X58000000Y-130000000D03*
X52500000Y-126000000D03*
X58000000Y-126000000D03*
X52500000Y-122000000D03*
X58000000Y-122000000D03*
X52500000Y-118000000D03*
X58000000Y-118000000D03*
X52500000Y-114000000D03*
X58000000Y-114000000D03*
X52500000Y-106000000D03*
X58000000Y-106000000D03*
X52500000Y-102000000D03*
X58000000Y-102000000D03*
X52500000Y-98000000D03*
X58000000Y-98000000D03*
X52500000Y-94000000D03*
X58000000Y-94000000D03*
D27*
X69500000Y-40750000D03*
X65125000Y-62000000D03*
X65000000Y-57500000D03*
X62500000Y-71500000D03*
X62500000Y-73000000D03*
X62500000Y-74500000D03*
X61000000Y-74500000D03*
X61000000Y-71500000D03*
X61000000Y-73000000D03*
D26*
X60500000Y-49000000D03*
X54750000Y-46750000D03*
X47250000Y-53250000D03*
X46000000Y-49250000D03*
X66000000Y-58500000D03*
X68250000Y-57000000D03*
X68000000Y-51250000D03*
X62000000Y-63900000D03*
X62750000Y-45500000D03*
X63000000Y-62500000D03*
X62750000Y-47750000D03*
D29*
X43500000Y-73000000D02*
X43500000Y-70000000D01*
D30*
X71030000Y-65000000D02*
X72630000Y-65000000D01*
X73500000Y-65870000D02*
X73500000Y-67470000D01*
X72630000Y-65000000D02*
X73500000Y-65870000D01*
X71030000Y-65000000D02*
X71030000Y-62030000D01*
X71030000Y-62030000D02*
X71000000Y-62000000D01*
X45750000Y-73500000D02*
X45750000Y-72750000D01*
X45750000Y-72750000D02*
X43500000Y-70500000D01*
X43500000Y-70500000D02*
X43500000Y-70000000D01*
D31*
X45750000Y-78500000D02*
X45750000Y-73500000D01*
X58372400Y-84000000D02*
X51250000Y-84000000D01*
X51250000Y-84000000D02*
X45750000Y-78500000D01*
X63337400Y-79035000D02*
X58372400Y-84000000D01*
X63337400Y-79035000D02*
X69275002Y-79035000D01*
X69275002Y-79035000D02*
X73500000Y-74810002D01*
X73500000Y-74810002D02*
X73500000Y-67470000D01*
D32*
X59200000Y-62100000D02*
X59200000Y-59800000D01*
X59200000Y-59800000D02*
X59250000Y-59750000D01*
D30*
X53750000Y-71000000D02*
X58000000Y-71000000D01*
X58000000Y-71000000D02*
X59000000Y-70000000D01*
D33*
X59000000Y-70000000D02*
X59000000Y-68250000D01*
X59000000Y-68250000D02*
X59250000Y-68000000D01*
D31*
X68500000Y-88000000D02*
X68500000Y-85500000D01*
X50000000Y-88000000D02*
X52500000Y-88000000D01*
D34*
X56500000Y-64000000D02*
X56500000Y-63500000D01*
X56500000Y-67500000D02*
X56500000Y-67000000D01*
X56500000Y-67000000D02*
X56500000Y-65600000D01*
X56000000Y-65600000D02*
X56000000Y-66500000D01*
X56000000Y-66500000D02*
X56500000Y-67000000D01*
X55000000Y-65000000D02*
X55000000Y-65500000D01*
X55000000Y-65500000D02*
X55000000Y-67750000D01*
X55950000Y-65050000D02*
X55450000Y-65050000D01*
X55450000Y-65050000D02*
X55000000Y-65500000D01*
X55950000Y-64550000D02*
X55450000Y-64550000D01*
X55450000Y-64550000D02*
X55000000Y-65000000D01*
X55000000Y-67750000D02*
X55250000Y-68000000D01*
X55250000Y-68000000D02*
X56000000Y-68000000D01*
X56500000Y-65600000D02*
X56500000Y-64000000D01*
D30*
X52500000Y-62000000D02*
X54750000Y-59750000D01*
X54750000Y-59750000D02*
X59250000Y-59750000D01*
D35*
X58000000Y-110000000D02*
X52500000Y-110000000D01*
X58000000Y-86000000D02*
X52500000Y-86000000D01*
D33*
X59750000Y-44500000D02*
X59250000Y-44500000D01*
X59250000Y-44500000D02*
X58000000Y-45750000D01*
D29*
X43500000Y-74500000D02*
X43500000Y-76000000D01*
X48000000Y-74500000D02*
X48000000Y-76397600D01*
X48000000Y-76397600D02*
X50637400Y-79035000D01*
D33*
X52500000Y-50250000D02*
X52500000Y-42250000D01*
X52500000Y-42250000D02*
X53000000Y-41750000D01*
X53000000Y-41750000D02*
X57000000Y-41750000D01*
X57000000Y-41750000D02*
X59750000Y-44500000D01*
D30*
X67000000Y-57750000D02*
X68190000Y-58940000D01*
X68190000Y-58940000D02*
X68750000Y-58940000D01*
X67000000Y-56000000D02*
X67000000Y-57750000D01*
X67000000Y-54000000D02*
X66250000Y-53250000D01*
X66250000Y-53250000D02*
X64250000Y-53250000D01*
X67000000Y-56000000D02*
X67000000Y-54000000D01*
X66250000Y-55250000D02*
X67000000Y-56000000D01*
X64250000Y-55250000D02*
X66250000Y-55250000D01*
X53750000Y-71000000D02*
X52500000Y-69750000D01*
D29*
X71000000Y-60500000D02*
X68750000Y-60500000D01*
D31*
X68750000Y-71300000D02*
X68750000Y-60500000D01*
X68750000Y-60500000D02*
X68750000Y-58940000D01*
D29*
X66500000Y-60500000D02*
X68750000Y-60500000D01*
D31*
X70150000Y-57540000D02*
X73000000Y-57540000D01*
X68750000Y-58940000D02*
X70150000Y-57540000D01*
X67250000Y-76000000D02*
X67250000Y-73000000D01*
X67250000Y-73000000D02*
X67225000Y-72975000D01*
X52500000Y-88000000D02*
X68500000Y-88000000D01*
D36*
X45780000Y-63700000D02*
X50700000Y-63700000D01*
X50700000Y-63700000D02*
X52500000Y-65500000D01*
D35*
X56000000Y-68000000D02*
X52500000Y-68000000D01*
D34*
X56500000Y-67500000D02*
X56000000Y-68000000D01*
D32*
X56000000Y-68000000D02*
X56000000Y-69500000D01*
D33*
X53500000Y-50250000D02*
X52500000Y-50250000D01*
X58000000Y-50000000D02*
X52750000Y-50000000D01*
X52750000Y-50000000D02*
X52500000Y-50250000D01*
X58000000Y-54000000D02*
X52500000Y-54000000D01*
X58750000Y-74500000D02*
X58450001Y-74799999D01*
X58450001Y-74799999D02*
X54872401Y-74799999D01*
X54872401Y-74799999D02*
X52387399Y-77285001D01*
X58000000Y-78000000D02*
X53250000Y-78000000D01*
X53250000Y-78000000D02*
X52535001Y-77285001D01*
X52535001Y-77285001D02*
X52387399Y-77285001D01*
X52387399Y-77285001D02*
X50637400Y-79035000D01*
X58000000Y-82000000D02*
X53602400Y-82000000D01*
X53602400Y-82000000D02*
X50637400Y-79035000D01*
X58000000Y-90000000D02*
X52500000Y-90000000D01*
X58000000Y-130000000D02*
X52500000Y-130000000D01*
X58000000Y-126000000D02*
X52500000Y-126000000D01*
X58000000Y-122000000D02*
X52500000Y-122000000D01*
X58000000Y-118000000D02*
X52500000Y-118000000D01*
X58000000Y-114000000D02*
X52500000Y-114000000D01*
D35*
X58000000Y-106000000D02*
X52500000Y-106000000D01*
X58000000Y-102000000D02*
X52500000Y-102000000D01*
X58000000Y-98000000D02*
X52500000Y-98000000D01*
X58000000Y-94000000D02*
X52500000Y-94000000D01*
D34*
X57000000Y-67500000D02*
X57000000Y-67000000D01*
X57000000Y-67000000D02*
X57000000Y-65600000D01*
X57500000Y-65600000D02*
X57500000Y-66500000D01*
X57500000Y-66500000D02*
X57000000Y-67000000D01*
X57000000Y-64000000D02*
X57000000Y-63500000D01*
X57000000Y-65600000D02*
X57000000Y-64000000D01*
D35*
X42500000Y-50250000D02*
X42500000Y-56800000D01*
X42500000Y-56800000D02*
X42990000Y-57290000D01*
X42990000Y-57290000D02*
X44250000Y-57290000D01*
X44000000Y-48000000D02*
X44000000Y-48750000D01*
X44000000Y-48750000D02*
X42500000Y-50250000D01*
D29*
X73000000Y-44840000D02*
X69500000Y-41340000D01*
X69500000Y-41340000D02*
X69500000Y-40750000D01*
D30*
X61750000Y-55250000D02*
X64000000Y-57500000D01*
X64000000Y-57500000D02*
X65000000Y-57500000D01*
X58375000Y-55250000D02*
X61750000Y-55250000D01*
D35*
X42990000Y-57290000D02*
X42750000Y-57050000D01*
X44250000Y-57290000D02*
X48210000Y-57290000D01*
X48210000Y-57290000D02*
X50250000Y-55250000D01*
D33*
X57500000Y-68000000D02*
X57525000Y-68000000D01*
X57525000Y-68000000D02*
X60525000Y-65000000D01*
X60525000Y-65000000D02*
X64750000Y-65000000D01*
D30*
X50250000Y-55250000D02*
X58375000Y-55250000D01*
X66500000Y-62000000D02*
X65125000Y-62000000D01*
D33*
X66470000Y-65000000D02*
X64750000Y-65000000D01*
D30*
X66470000Y-65000000D02*
X66470000Y-62030000D01*
X66470000Y-62030000D02*
X66500000Y-62000000D01*
D34*
X57000000Y-67500000D02*
X57500000Y-68000000D01*
D32*
X57500000Y-69500000D02*
X57500000Y-68000000D01*
D36*
X62500000Y-74500000D02*
X61000000Y-74500000D01*
X62500000Y-71500000D02*
X62500000Y-74500000D01*
X61000000Y-74500000D02*
X61000000Y-71969862D01*
X61000000Y-71969862D02*
X61100010Y-71869852D01*
X61100010Y-71869852D02*
X61100010Y-71500000D01*
X62500000Y-71500000D02*
X61100010Y-71500000D01*
X62500000Y-74500000D02*
X62500000Y-73000000D01*
X61000000Y-73000000D02*
X61000000Y-74500000D01*
D35*
X54750000Y-46750000D02*
X58250000Y-46750000D01*
X58250000Y-46750000D02*
X60500000Y-49000000D01*
D31*
X48060000Y-70000000D02*
X51060000Y-73000000D01*
X51060000Y-73000000D02*
X61000000Y-73000000D01*
D30*
X48060000Y-70000000D02*
X48060000Y-72940000D01*
X48060000Y-72940000D02*
X48000000Y-73000000D01*
D35*
X50250000Y-53250000D02*
X47250000Y-53250000D01*
X50250000Y-49250000D02*
X46000000Y-49250000D01*
X46250000Y-45250000D02*
X50250000Y-45250000D01*
X46250000Y-45250000D02*
X45000000Y-46500000D01*
X45000000Y-46500000D02*
X44000000Y-46500000D01*
X59250000Y-58500000D02*
X42500000Y-58500000D01*
X41750000Y-57750000D02*
X41750000Y-48550000D01*
X42500000Y-58500000D02*
X41750000Y-57750000D01*
X41750000Y-48550000D02*
X43800000Y-46500000D01*
X43800000Y-46500000D02*
X44000000Y-46500000D01*
X66000000Y-58500000D02*
X63656483Y-58500000D01*
X73000000Y-55000000D02*
X70250000Y-55000000D01*
X70250000Y-55000000D02*
X68250000Y-57000000D01*
X59250000Y-58500000D02*
X59500000Y-58500000D01*
X63656483Y-58500000D02*
X59250000Y-58500000D01*
D33*
X73000000Y-52460000D02*
X69790000Y-49250000D01*
X69790000Y-49250000D02*
X64250000Y-49250000D01*
X73000000Y-49920000D02*
X66330000Y-43250000D01*
X66330000Y-43250000D02*
X64250000Y-43250000D01*
X64250000Y-41250000D02*
X66870000Y-41250000D01*
X66870000Y-41250000D02*
X73000000Y-47380000D01*
D35*
X68000000Y-51250000D02*
X64250000Y-51250000D01*
D34*
X57500000Y-64000000D02*
X57500000Y-63300000D01*
X57500000Y-63300000D02*
X57700000Y-63100000D01*
X57700000Y-63100000D02*
X58400000Y-63100000D01*
X58400000Y-63100000D02*
X59200000Y-63900000D01*
X59200000Y-63900000D02*
X62000000Y-63900000D01*
D37*
X64250000Y-45250000D02*
X63000000Y-45250000D01*
X63000000Y-45250000D02*
X62750000Y-45500000D01*
D34*
X56000000Y-64000000D02*
X56000000Y-62900000D01*
X56000000Y-62900000D02*
X56300000Y-62600000D01*
X56300000Y-62600000D02*
X58600000Y-62600000D01*
X58600000Y-62600000D02*
X59300000Y-63300000D01*
X59300000Y-63300000D02*
X61500000Y-63300000D01*
X62300000Y-62500000D02*
X63000000Y-62500000D01*
X61500000Y-63300000D02*
X62300000Y-62500000D01*
D37*
X64250000Y-47250000D02*
X63250000Y-47250000D01*
X63250000Y-47250000D02*
X62750000Y-47750000D01*
D35*
X50250000Y-51250000D02*
X45210000Y-51250000D01*
X45210000Y-51250000D02*
X44250000Y-52210000D01*
D38*
G36*
X47652560Y-41800000D02*
X47696838Y-42035317D01*
X47835910Y-42251441D01*
X47837299Y-42252390D01*
X47703569Y-42448110D01*
X47652560Y-42700000D01*
X47652560Y-43800000D01*
X47696838Y-44035317D01*
X47835910Y-44251441D01*
X47837299Y-44252390D01*
X47760356Y-44365000D01*
X46250005Y-44365000D01*
X46250000Y-44364999D01*
X45967516Y-44421190D01*
X45911325Y-44432367D01*
X45624210Y-44624210D01*
X45624208Y-44624213D01*
X44633420Y-45615000D01*
X44511431Y-45615000D01*
X44450000Y-45602560D01*
X43550000Y-45602560D01*
X43314683Y-45646838D01*
X43098559Y-45785910D01*
X42953569Y-45998110D01*
X42929004Y-46119417D01*
X41124210Y-47924210D01*
X40932367Y-48211325D01*
X40932367Y-48211326D01*
X40864999Y-48550000D01*
X40865000Y-48550005D01*
X40865000Y-57749995D01*
X40864999Y-57750000D01*
X40901831Y-57935162D01*
X40932367Y-58088675D01*
X40990048Y-58175001D01*
X41124210Y-58375790D01*
X41874208Y-59125787D01*
X41874210Y-59125790D01*
X42123250Y-59292192D01*
X42161325Y-59317633D01*
X42500000Y-59385001D01*
X42500005Y-59385000D01*
X65693178Y-59385000D01*
X65813201Y-59434838D01*
X66185167Y-59435162D01*
X66528943Y-59293117D01*
X66792192Y-59030327D01*
X66934838Y-58686799D01*
X66935162Y-58314833D01*
X66793117Y-57971057D01*
X66530327Y-57707808D01*
X66186799Y-57565162D01*
X66134944Y-57565117D01*
X66135197Y-57275225D01*
X65962767Y-56857914D01*
X65643765Y-56538355D01*
X65394860Y-56435000D01*
X66326309Y-56435000D01*
X66559698Y-56338327D01*
X66738327Y-56159699D01*
X66835000Y-55926310D01*
X66835000Y-55535750D01*
X66676250Y-55377000D01*
X65077000Y-55377000D01*
X65077000Y-55397000D01*
X64823000Y-55397000D01*
X64823000Y-55377000D01*
X64803000Y-55377000D01*
X64803000Y-55123000D01*
X64823000Y-55123000D01*
X64823000Y-53377000D01*
X65077000Y-53377000D01*
X65077000Y-55123000D01*
X66676250Y-55123000D01*
X66835000Y-54964250D01*
X66835000Y-54573690D01*
X66738327Y-54340301D01*
X66648025Y-54250000D01*
X66738327Y-54159699D01*
X66835000Y-53926310D01*
X66835000Y-53535750D01*
X66676250Y-53377000D01*
X65077000Y-53377000D01*
X64823000Y-53377000D01*
X63223750Y-53377000D01*
X63065000Y-53535750D01*
X63065000Y-53926310D01*
X63161673Y-54159699D01*
X63251975Y-54250000D01*
X63161673Y-54340301D01*
X63065000Y-54573690D01*
X63065000Y-54959868D01*
X62552566Y-54447434D01*
X62486308Y-54403162D01*
X62184346Y-54201397D01*
X61750000Y-54115000D01*
X51353310Y-54115000D01*
X51396431Y-54051890D01*
X51447440Y-53800000D01*
X51447440Y-52700000D01*
X51403162Y-52464683D01*
X51264090Y-52248559D01*
X51262701Y-52247610D01*
X51396431Y-52051890D01*
X51447440Y-51800000D01*
X51447440Y-50700000D01*
X51403162Y-50464683D01*
X51264090Y-50248559D01*
X51262701Y-50247610D01*
X51396431Y-50051890D01*
X51447440Y-49800000D01*
X51447440Y-48700000D01*
X51403162Y-48464683D01*
X51264090Y-48248559D01*
X51262701Y-48247610D01*
X51396431Y-48051890D01*
X51447440Y-47800000D01*
X51447440Y-46935167D01*
X53814838Y-46935167D01*
X53956883Y-47278943D01*
X54219673Y-47542192D01*
X54563201Y-47684838D01*
X54935167Y-47685162D01*
X55056569Y-47635000D01*
X57883420Y-47635000D01*
X59657255Y-49408834D01*
X59706883Y-49528943D01*
X59969673Y-49792192D01*
X60313201Y-49934838D01*
X60685167Y-49935162D01*
X61028943Y-49793117D01*
X61292192Y-49530327D01*
X61434838Y-49186799D01*
X61435162Y-48814833D01*
X61293117Y-48471057D01*
X61030327Y-48207808D01*
X60909013Y-48157434D01*
X58875790Y-46124210D01*
X58791116Y-46067633D01*
X58588675Y-45932367D01*
X58532484Y-45921190D01*
X58250000Y-45864999D01*
X58249995Y-45865000D01*
X55056822Y-45865000D01*
X54936799Y-45815162D01*
X54564833Y-45814838D01*
X54221057Y-45956883D01*
X53957808Y-46219673D01*
X53815162Y-46563201D01*
X53814838Y-46935167D01*
X51447440Y-46935167D01*
X51447440Y-46700000D01*
X51403162Y-46464683D01*
X51264090Y-46248559D01*
X51262701Y-46247610D01*
X51396431Y-46051890D01*
X51447440Y-45800000D01*
X51447440Y-44700000D01*
X51403162Y-44464683D01*
X51264090Y-44248559D01*
X51262701Y-44247610D01*
X51396431Y-44051890D01*
X51447440Y-43800000D01*
X51447440Y-42700000D01*
X51403162Y-42464683D01*
X51264090Y-42248559D01*
X51262701Y-42247610D01*
X51396431Y-42051890D01*
X51447440Y-41800000D01*
X51447440Y-40710000D01*
X63052560Y-40710000D01*
X63052560Y-41800000D01*
X63096838Y-42035317D01*
X63235910Y-42251441D01*
X63237299Y-42252390D01*
X63103569Y-42448110D01*
X63052560Y-42700000D01*
X63052560Y-43800000D01*
X63096838Y-44035317D01*
X63235910Y-44251441D01*
X63237299Y-44252390D01*
X63103569Y-44448110D01*
X63100149Y-44465000D01*
X63000000Y-44465000D01*
X62699593Y-44524755D01*
X62639507Y-44564903D01*
X62564833Y-44564838D01*
X62221057Y-44706883D01*
X61957808Y-44969673D01*
X61815162Y-45313201D01*
X61814838Y-45685167D01*
X61956883Y-46028943D01*
X62219673Y-46292192D01*
X62563201Y-46434838D01*
X62935167Y-46435162D01*
X63182142Y-46333114D01*
X63103569Y-46448110D01*
X63093859Y-46496059D01*
X62949594Y-46524755D01*
X62694921Y-46694921D01*
X62574995Y-46814847D01*
X62564833Y-46814838D01*
X62221057Y-46956883D01*
X61957808Y-47219673D01*
X61815162Y-47563201D01*
X61814838Y-47935167D01*
X61956883Y-48278943D01*
X62219673Y-48542192D01*
X62563201Y-48684838D01*
X62935167Y-48685162D01*
X63066559Y-48630872D01*
X63052560Y-48700000D01*
X63052560Y-49800000D01*
X63096838Y-50035317D01*
X63235910Y-50251441D01*
X63237299Y-50252390D01*
X63103569Y-50448110D01*
X63052560Y-50700000D01*
X63052560Y-51800000D01*
X63096838Y-52035317D01*
X63235910Y-52251441D01*
X63244598Y-52257377D01*
X63161673Y-52340301D01*
X63065000Y-52573690D01*
X63065000Y-52964250D01*
X63223750Y-53123000D01*
X64823000Y-53123000D01*
X64823000Y-53103000D01*
X65077000Y-53103000D01*
X65077000Y-53123000D01*
X66676250Y-53123000D01*
X66835000Y-52964250D01*
X66835000Y-52573690D01*
X66738327Y-52340301D01*
X66655774Y-52257748D01*
X66739644Y-52135000D01*
X67693178Y-52135000D01*
X67813201Y-52184838D01*
X68185167Y-52185162D01*
X68528943Y-52043117D01*
X68792192Y-51780327D01*
X68934838Y-51436799D01*
X68935162Y-51064833D01*
X68793117Y-50721057D01*
X68530327Y-50457808D01*
X68186799Y-50315162D01*
X67814833Y-50314838D01*
X67693431Y-50365000D01*
X66739018Y-50365000D01*
X66664090Y-50248559D01*
X66662701Y-50247610D01*
X66705481Y-50185000D01*
X69402710Y-50185000D01*
X71517729Y-52300019D01*
X71485907Y-52460000D01*
X71598946Y-53028285D01*
X71920853Y-53510054D01*
X72250026Y-53730000D01*
X71920853Y-53949946D01*
X71810568Y-54115000D01*
X70250005Y-54115000D01*
X70250000Y-54114999D01*
X69911325Y-54182367D01*
X69624210Y-54374210D01*
X69624208Y-54374213D01*
X67841164Y-56157256D01*
X67721057Y-56206883D01*
X67457808Y-56469673D01*
X67315162Y-56813201D01*
X67314838Y-57185167D01*
X67456883Y-57528943D01*
X67719673Y-57792192D01*
X68063201Y-57934838D01*
X68435167Y-57935162D01*
X68699964Y-57825750D01*
X71515000Y-57825750D01*
X71515000Y-58516310D01*
X71611673Y-58749699D01*
X71790302Y-58928327D01*
X72023691Y-59025000D01*
X72714250Y-59025000D01*
X72873000Y-58866250D01*
X72873000Y-57667000D01*
X71673750Y-57667000D01*
X71515000Y-57825750D01*
X68699964Y-57825750D01*
X68778943Y-57793117D01*
X69042192Y-57530327D01*
X69092566Y-57409014D01*
X70616579Y-55885000D01*
X71810568Y-55885000D01*
X71920853Y-56050054D01*
X71964777Y-56079403D01*
X71790302Y-56151673D01*
X71611673Y-56330301D01*
X71515000Y-56563690D01*
X71515000Y-57254250D01*
X71673750Y-57413000D01*
X72873000Y-57413000D01*
X72873000Y-57393000D01*
X73127000Y-57393000D01*
X73127000Y-57413000D01*
X73147000Y-57413000D01*
X73147000Y-57667000D01*
X73127000Y-57667000D01*
X73127000Y-58866250D01*
X73285750Y-59025000D01*
X73976309Y-59025000D01*
X74209698Y-58928327D01*
X74290000Y-58848025D01*
X74290000Y-65054868D01*
X73432566Y-64197434D01*
X73396163Y-64173110D01*
X73064346Y-63951397D01*
X72630000Y-63865000D01*
X72270854Y-63865000D01*
X72233162Y-63664683D01*
X72165000Y-63558756D01*
X72165000Y-62030000D01*
X72078603Y-61595654D01*
X71999286Y-61476948D01*
X71978162Y-61364683D01*
X71911671Y-61261354D01*
X71913327Y-61259698D01*
X72010000Y-61026309D01*
X72010000Y-60785750D01*
X71851250Y-60627000D01*
X71127000Y-60627000D01*
X71127000Y-60647000D01*
X70873000Y-60647000D01*
X70873000Y-60627000D01*
X70148750Y-60627000D01*
X69990000Y-60785750D01*
X69990000Y-61026309D01*
X70086673Y-61259698D01*
X70088043Y-61261068D01*
X70028569Y-61348110D01*
X69998917Y-61494536D01*
X69951397Y-61565655D01*
X69865000Y-62000000D01*
X69895000Y-62150819D01*
X69895000Y-63558203D01*
X69833569Y-63648110D01*
X69782560Y-63900000D01*
X69782560Y-66100000D01*
X69826838Y-66335317D01*
X69965910Y-66551441D01*
X70178110Y-66696431D01*
X70430000Y-66747440D01*
X71630000Y-66747440D01*
X71865317Y-66703162D01*
X72081441Y-66564090D01*
X72226431Y-66351890D01*
X72251746Y-66226878D01*
X72341824Y-66316956D01*
X71989457Y-66844313D01*
X71865000Y-67470000D01*
X71865000Y-67501737D01*
X71776310Y-67465000D01*
X68773690Y-67465000D01*
X68750000Y-67474813D01*
X68726310Y-67465000D01*
X65723690Y-67465000D01*
X65490301Y-67561673D01*
X65311673Y-67740302D01*
X65215000Y-67973691D01*
X65215000Y-71276309D01*
X65224813Y-71300000D01*
X65215000Y-71323691D01*
X65215000Y-74626309D01*
X65311673Y-74859698D01*
X65490301Y-75038327D01*
X65723690Y-75135000D01*
X68726310Y-75135000D01*
X68750000Y-75125187D01*
X68773690Y-75135000D01*
X70862763Y-75135000D01*
X68597762Y-77400000D01*
X65075211Y-77400000D01*
X64690158Y-77014274D01*
X63813887Y-76650415D01*
X62865075Y-76649587D01*
X61988171Y-77011916D01*
X61316674Y-77682242D01*
X60952815Y-78558513D01*
X60952336Y-79107825D01*
X57695160Y-82365000D01*
X51927239Y-82365000D01*
X50978018Y-81415779D01*
X51142723Y-81413641D01*
X51962036Y-81074271D01*
X52152323Y-80729528D01*
X50637400Y-79214605D01*
X50623258Y-79228748D01*
X50443653Y-79049143D01*
X50457795Y-79035000D01*
X50817005Y-79035000D01*
X52331928Y-80549923D01*
X52676671Y-80359636D01*
X53028356Y-79478409D01*
X53016041Y-78529677D01*
X52676671Y-77710364D01*
X52331928Y-77520077D01*
X50817005Y-79035000D01*
X50457795Y-79035000D01*
X48942872Y-77520077D01*
X48598129Y-77710364D01*
X48246444Y-78591591D01*
X48247662Y-78685422D01*
X47385000Y-77822760D01*
X47385000Y-77340472D01*
X49122477Y-77340472D01*
X50637400Y-78855395D01*
X52152323Y-77340472D01*
X51962036Y-76995729D01*
X51080809Y-76644044D01*
X50132077Y-76656359D01*
X49312764Y-76995729D01*
X49122477Y-77340472D01*
X47385000Y-77340472D01*
X47385000Y-75487908D01*
X47498690Y-75535000D01*
X47714250Y-75535000D01*
X47873000Y-75376250D01*
X47873000Y-74627000D01*
X48127000Y-74627000D01*
X48127000Y-75376250D01*
X48285750Y-75535000D01*
X48501310Y-75535000D01*
X48734699Y-75438327D01*
X48913327Y-75259698D01*
X49010000Y-75026309D01*
X49010000Y-74785750D01*
X48851250Y-74627000D01*
X48127000Y-74627000D01*
X47873000Y-74627000D01*
X47853000Y-74627000D01*
X47853000Y-74373000D01*
X47873000Y-74373000D01*
X47873000Y-74353000D01*
X48127000Y-74353000D01*
X48127000Y-74373000D01*
X48851250Y-74373000D01*
X49010000Y-74214250D01*
X49010000Y-73973691D01*
X48913327Y-73740302D01*
X48911957Y-73738932D01*
X48971431Y-73651890D01*
X48992425Y-73548218D01*
X49108603Y-73374346D01*
X49110843Y-73363083D01*
X49903878Y-74156117D01*
X49903880Y-74156120D01*
X50082134Y-74275225D01*
X50434313Y-74510543D01*
X51060000Y-74635001D01*
X51060005Y-74635000D01*
X58891853Y-74635000D01*
X59027517Y-75317029D01*
X59490327Y-76009673D01*
X60182971Y-76472483D01*
X61000000Y-76635000D01*
X62500000Y-76635000D01*
X63317029Y-76472483D01*
X64009673Y-76009673D01*
X64472483Y-75317029D01*
X64635000Y-74500000D01*
X64635000Y-71500000D01*
X64472483Y-70682971D01*
X64009673Y-69990327D01*
X63317029Y-69527517D01*
X62500000Y-69365000D01*
X61100010Y-69365000D01*
X60282981Y-69527517D01*
X59590337Y-69990327D01*
X59127527Y-70682971D01*
X59036842Y-71138878D01*
X59027517Y-71152833D01*
X58985314Y-71365000D01*
X51737239Y-71365000D01*
X50157990Y-69785750D01*
X54965000Y-69785750D01*
X54965000Y-70001310D01*
X55061673Y-70234699D01*
X55240302Y-70413327D01*
X55473691Y-70510000D01*
X55714250Y-70510000D01*
X55873000Y-70351250D01*
X55873000Y-69627000D01*
X55123750Y-69627000D01*
X54965000Y-69785750D01*
X50157990Y-69785750D01*
X49307440Y-68935200D01*
X49307440Y-68900000D01*
X49263162Y-68664683D01*
X49124090Y-68448559D01*
X48911890Y-68303569D01*
X48823898Y-68285750D01*
X54965000Y-68285750D01*
X54965000Y-68501310D01*
X55061673Y-68734699D01*
X55076974Y-68750000D01*
X55061673Y-68765301D01*
X54965000Y-68998690D01*
X54965000Y-69214250D01*
X55123750Y-69373000D01*
X55873000Y-69373000D01*
X55873000Y-68127000D01*
X55123750Y-68127000D01*
X54965000Y-68285750D01*
X48823898Y-68285750D01*
X48660000Y-68252560D01*
X47460000Y-68252560D01*
X47224683Y-68296838D01*
X47008559Y-68435910D01*
X46863569Y-68648110D01*
X46812560Y-68900000D01*
X46812560Y-68980550D01*
X46549457Y-69374312D01*
X46424999Y-70000000D01*
X46549457Y-70625688D01*
X46812560Y-71019450D01*
X46812560Y-71100000D01*
X46856838Y-71335317D01*
X46925000Y-71441244D01*
X46925000Y-72372136D01*
X46906120Y-72343880D01*
X46745957Y-72236863D01*
X46552567Y-71947434D01*
X44747440Y-70142308D01*
X44747440Y-68900000D01*
X44703162Y-68664683D01*
X44564090Y-68448559D01*
X44351890Y-68303569D01*
X44100000Y-68252560D01*
X42900000Y-68252560D01*
X42664683Y-68296838D01*
X42448559Y-68435910D01*
X42303569Y-68648110D01*
X42252560Y-68900000D01*
X42252560Y-71100000D01*
X42296838Y-71335317D01*
X42435910Y-71551441D01*
X42515000Y-71605481D01*
X42515000Y-72415116D01*
X42477560Y-72600000D01*
X42477560Y-73400000D01*
X42521838Y-73635317D01*
X42588329Y-73738646D01*
X42586673Y-73740302D01*
X42490000Y-73973691D01*
X42490000Y-74214250D01*
X42648750Y-74373000D01*
X43373000Y-74373000D01*
X43373000Y-74353000D01*
X43627000Y-74353000D01*
X43627000Y-74373000D01*
X43647000Y-74373000D01*
X43647000Y-74627000D01*
X43627000Y-74627000D01*
X43627000Y-75376250D01*
X43785750Y-75535000D01*
X44001310Y-75535000D01*
X44115000Y-75487908D01*
X44115000Y-78499995D01*
X44114999Y-78500000D01*
X44239457Y-79125688D01*
X44593880Y-79656120D01*
X50093878Y-85156117D01*
X50093880Y-85156120D01*
X50624313Y-85510543D01*
X51250000Y-85635001D01*
X51250005Y-85635000D01*
X58372395Y-85635000D01*
X58372400Y-85635001D01*
X58998088Y-85510543D01*
X59528520Y-85156120D01*
X63264702Y-81419937D01*
X63809725Y-81420413D01*
X64686629Y-81058084D01*
X65075391Y-80670000D01*
X69274997Y-80670000D01*
X69275002Y-80670001D01*
X69900690Y-80545543D01*
X70431122Y-80191120D01*
X74290000Y-76332241D01*
X74290000Y-129794561D01*
X68608670Y-138790000D01*
X44471422Y-138790000D01*
X43453867Y-136373305D01*
X44614674Y-136373305D01*
X44901043Y-137066372D01*
X45430839Y-137597093D01*
X46123405Y-137884672D01*
X46873305Y-137885326D01*
X47566372Y-137598957D01*
X48097093Y-137069161D01*
X48384672Y-136376595D01*
X48384674Y-136373305D01*
X64614674Y-136373305D01*
X64901043Y-137066372D01*
X65430839Y-137597093D01*
X66123405Y-137884672D01*
X66873305Y-137885326D01*
X67566372Y-137598957D01*
X68097093Y-137069161D01*
X68384672Y-136376595D01*
X68385326Y-135626695D01*
X68098957Y-134933628D01*
X67569161Y-134402907D01*
X66876595Y-134115328D01*
X66126695Y-134114674D01*
X65433628Y-134401043D01*
X64902907Y-134930839D01*
X64615328Y-135623405D01*
X64614674Y-136373305D01*
X48384674Y-136373305D01*
X48385326Y-135626695D01*
X48098957Y-134933628D01*
X47569161Y-134402907D01*
X46876595Y-134115328D01*
X46126695Y-134114674D01*
X45433628Y-134401043D01*
X44902907Y-134930839D01*
X44615328Y-135623405D01*
X44614674Y-136373305D01*
X43453867Y-136373305D01*
X40710000Y-129856623D01*
X40710000Y-117078474D01*
X42153294Y-117078474D01*
X42597053Y-118152452D01*
X43418026Y-118974860D01*
X44491228Y-119420492D01*
X45653274Y-119421506D01*
X46727252Y-118977747D01*
X47549660Y-118156774D01*
X47995292Y-117083572D01*
X47995296Y-117078474D01*
X65978494Y-117078474D01*
X66422253Y-118152452D01*
X67243226Y-118974860D01*
X68316428Y-119420492D01*
X69478474Y-119421506D01*
X70552452Y-118977747D01*
X71374860Y-118156774D01*
X71820492Y-117083572D01*
X71821506Y-115921526D01*
X71377747Y-114847548D01*
X70556774Y-114025140D01*
X69483572Y-113579508D01*
X68321526Y-113578494D01*
X67247548Y-114022253D01*
X66425140Y-114843226D01*
X65979508Y-115916428D01*
X65978494Y-117078474D01*
X47995296Y-117078474D01*
X47996306Y-115921526D01*
X47552547Y-114847548D01*
X46731574Y-114025140D01*
X45658372Y-113579508D01*
X44496326Y-113578494D01*
X43422348Y-114022253D01*
X42599940Y-114843226D01*
X42154308Y-115916428D01*
X42153294Y-117078474D01*
X40710000Y-117078474D01*
X40710000Y-94853474D01*
X42153294Y-94853474D01*
X42597053Y-95927452D01*
X43418026Y-96749860D01*
X44491228Y-97195492D01*
X45653274Y-97196506D01*
X46727252Y-96752747D01*
X47549660Y-95931774D01*
X47995292Y-94858572D01*
X47995296Y-94853474D01*
X65978494Y-94853474D01*
X66422253Y-95927452D01*
X67243226Y-96749860D01*
X68316428Y-97195492D01*
X69478474Y-97196506D01*
X70552452Y-96752747D01*
X71374860Y-95931774D01*
X71820492Y-94858572D01*
X71821506Y-93696526D01*
X71377747Y-92622548D01*
X70556774Y-91800140D01*
X69483572Y-91354508D01*
X68321526Y-91353494D01*
X67247548Y-91797253D01*
X66425140Y-92618226D01*
X65979508Y-93691428D01*
X65978494Y-94853474D01*
X47995296Y-94853474D01*
X47996306Y-93696526D01*
X47552547Y-92622548D01*
X46731574Y-91800140D01*
X45658372Y-91354508D01*
X44496326Y-91353494D01*
X43422348Y-91797253D01*
X42599940Y-92618226D01*
X42154308Y-93691428D01*
X42153294Y-94853474D01*
X40710000Y-94853474D01*
X40710000Y-74785750D01*
X42490000Y-74785750D01*
X42490000Y-75026309D01*
X42586673Y-75259698D01*
X42765301Y-75438327D01*
X42998690Y-75535000D01*
X43214250Y-75535000D01*
X43373000Y-75376250D01*
X43373000Y-74627000D01*
X42648750Y-74627000D01*
X42490000Y-74785750D01*
X40710000Y-74785750D01*
X40710000Y-60373691D01*
X42245000Y-60373691D01*
X42245000Y-63676309D01*
X42254813Y-63700000D01*
X42245000Y-63723691D01*
X42245000Y-67026309D01*
X42341673Y-67259698D01*
X42520301Y-67438327D01*
X42753690Y-67535000D01*
X45756310Y-67535000D01*
X45780000Y-67525187D01*
X45803690Y-67535000D01*
X48806310Y-67535000D01*
X48893969Y-67498690D01*
X54965000Y-67498690D01*
X54965000Y-67714250D01*
X55123750Y-67873000D01*
X55873000Y-67873000D01*
X55873000Y-67148750D01*
X55714250Y-66990000D01*
X55473691Y-66990000D01*
X55240302Y-67086673D01*
X55061673Y-67265301D01*
X54965000Y-67498690D01*
X48893969Y-67498690D01*
X49039699Y-67438327D01*
X49218327Y-67259698D01*
X49315000Y-67026309D01*
X49315000Y-64298691D01*
X54990000Y-64298691D01*
X54990000Y-64328750D01*
X55148750Y-64487500D01*
X55164475Y-64487500D01*
X55086673Y-64565302D01*
X55009404Y-64751846D01*
X54990000Y-64771250D01*
X54990000Y-64828750D01*
X55009404Y-64848154D01*
X55086673Y-65034698D01*
X55164475Y-65112500D01*
X55148750Y-65112500D01*
X54990000Y-65271250D01*
X54990000Y-65301309D01*
X55086673Y-65534698D01*
X55265301Y-65713327D01*
X55498690Y-65810000D01*
X55566250Y-65810000D01*
X55725000Y-65651250D01*
X55725000Y-65625000D01*
X55925000Y-65625000D01*
X55925000Y-65651250D01*
X56083750Y-65810000D01*
X56125000Y-65810000D01*
X56125000Y-65825000D01*
X55398750Y-65825000D01*
X55240000Y-65983750D01*
X55240000Y-66051309D01*
X55336673Y-66284698D01*
X55515301Y-66463327D01*
X55748690Y-66560000D01*
X55778750Y-66560000D01*
X55937500Y-66401250D01*
X55937500Y-66385526D01*
X56015301Y-66463327D01*
X56201847Y-66540597D01*
X56221250Y-66560000D01*
X56240000Y-66560000D01*
X56240000Y-67035750D01*
X56127000Y-67148750D01*
X56127000Y-67873000D01*
X56147000Y-67873000D01*
X56147000Y-68127000D01*
X56127000Y-68127000D01*
X56127000Y-69373000D01*
X56147000Y-69373000D01*
X56147000Y-69627000D01*
X56127000Y-69627000D01*
X56127000Y-70351250D01*
X56285750Y-70510000D01*
X56526309Y-70510000D01*
X56759698Y-70413327D01*
X56761068Y-70411957D01*
X56848110Y-70471431D01*
X57100000Y-70522440D01*
X57900000Y-70522440D01*
X58135317Y-70478162D01*
X58351441Y-70339090D01*
X58496431Y-70126890D01*
X58547440Y-69875000D01*
X58547440Y-69125000D01*
X58503162Y-68889683D01*
X58412810Y-68749273D01*
X58496431Y-68626890D01*
X58547440Y-68375000D01*
X58547440Y-68299850D01*
X60912290Y-65935000D01*
X65222560Y-65935000D01*
X65222560Y-66100000D01*
X65266838Y-66335317D01*
X65405910Y-66551441D01*
X65618110Y-66696431D01*
X65870000Y-66747440D01*
X67070000Y-66747440D01*
X67305317Y-66703162D01*
X67521441Y-66564090D01*
X67666431Y-66351890D01*
X67717440Y-66100000D01*
X67717440Y-63900000D01*
X67673162Y-63664683D01*
X67605000Y-63558756D01*
X67605000Y-62150820D01*
X67635000Y-62000000D01*
X67548603Y-61565654D01*
X67503188Y-61497686D01*
X67478162Y-61364683D01*
X67411671Y-61261354D01*
X67413327Y-61259698D01*
X67510000Y-61026309D01*
X67510000Y-60785750D01*
X67351250Y-60627000D01*
X66627000Y-60627000D01*
X66627000Y-60647000D01*
X66373000Y-60647000D01*
X66373000Y-60627000D01*
X65648750Y-60627000D01*
X65490000Y-60785750D01*
X65490000Y-60865000D01*
X65125990Y-60865000D01*
X64900225Y-60864803D01*
X64482914Y-61037233D01*
X64163355Y-61356235D01*
X63990197Y-61773244D01*
X63989803Y-62224775D01*
X64162233Y-62642086D01*
X64481235Y-62961645D01*
X64898244Y-63134803D01*
X65335000Y-63135184D01*
X65335000Y-63558203D01*
X65273569Y-63648110D01*
X65222560Y-63900000D01*
X65222560Y-64065000D01*
X62934857Y-64065000D01*
X62935162Y-63714833D01*
X62819473Y-63434843D01*
X63185167Y-63435162D01*
X63528943Y-63293117D01*
X63792192Y-63030327D01*
X63934838Y-62686799D01*
X63935162Y-62314833D01*
X63793117Y-61971057D01*
X63530327Y-61707808D01*
X63186799Y-61565162D01*
X62814833Y-61564838D01*
X62471057Y-61706883D01*
X62437882Y-61740000D01*
X62300000Y-61740000D01*
X62009161Y-61797852D01*
X61762599Y-61962599D01*
X61185198Y-62540000D01*
X59614803Y-62540000D01*
X59137401Y-62062599D01*
X58890839Y-61897852D01*
X58600000Y-61840000D01*
X56300000Y-61840000D01*
X56009161Y-61897852D01*
X55762599Y-62062599D01*
X55462599Y-62362599D01*
X55297852Y-62609161D01*
X55240000Y-62900000D01*
X55240000Y-63613569D01*
X55227560Y-63675000D01*
X55227560Y-63924414D01*
X55086673Y-64065302D01*
X54990000Y-64298691D01*
X49315000Y-64298691D01*
X49315000Y-63723691D01*
X49305187Y-63700000D01*
X49315000Y-63676309D01*
X49315000Y-60373691D01*
X49218327Y-60140302D01*
X49051717Y-59973691D01*
X65490000Y-59973691D01*
X65490000Y-60214250D01*
X65648750Y-60373000D01*
X66373000Y-60373000D01*
X66373000Y-59623750D01*
X66627000Y-59623750D01*
X66627000Y-60373000D01*
X67351250Y-60373000D01*
X67510000Y-60214250D01*
X67510000Y-59973691D01*
X69990000Y-59973691D01*
X69990000Y-60214250D01*
X70148750Y-60373000D01*
X70873000Y-60373000D01*
X70873000Y-59623750D01*
X71127000Y-59623750D01*
X71127000Y-60373000D01*
X71851250Y-60373000D01*
X72010000Y-60214250D01*
X72010000Y-59973691D01*
X71913327Y-59740302D01*
X71734699Y-59561673D01*
X71501310Y-59465000D01*
X71285750Y-59465000D01*
X71127000Y-59623750D01*
X70873000Y-59623750D01*
X70714250Y-59465000D01*
X70498690Y-59465000D01*
X70265301Y-59561673D01*
X70086673Y-59740302D01*
X69990000Y-59973691D01*
X67510000Y-59973691D01*
X67413327Y-59740302D01*
X67234699Y-59561673D01*
X67001310Y-59465000D01*
X66785750Y-59465000D01*
X66627000Y-59623750D01*
X66373000Y-59623750D01*
X66214250Y-59465000D01*
X65998690Y-59465000D01*
X65765301Y-59561673D01*
X65586673Y-59740302D01*
X65490000Y-59973691D01*
X49051717Y-59973691D01*
X49039699Y-59961673D01*
X48806310Y-59865000D01*
X45803690Y-59865000D01*
X45780000Y-59874813D01*
X45756310Y-59865000D01*
X42753690Y-59865000D01*
X42520301Y-59961673D01*
X42341673Y-60140302D01*
X42245000Y-60373691D01*
X40710000Y-60373691D01*
X40710000Y-43373305D01*
X41114674Y-43373305D01*
X41401043Y-44066372D01*
X41930839Y-44597093D01*
X42623405Y-44884672D01*
X43373305Y-44885326D01*
X44066372Y-44598957D01*
X44597093Y-44069161D01*
X44884672Y-43376595D01*
X44885326Y-42626695D01*
X44598957Y-41933628D01*
X44069161Y-41402907D01*
X43376595Y-41115328D01*
X42626695Y-41114674D01*
X41933628Y-41401043D01*
X41402907Y-41930839D01*
X41115328Y-42623405D01*
X41114674Y-43373305D01*
X40710000Y-43373305D01*
X40710000Y-40710000D01*
X47652560Y-40710000D01*
X47652560Y-41800000D01*
X47652560Y-41800000D01*
G37*
X47652560Y-41800000D02*
X47696838Y-42035317D01*
X47835910Y-42251441D01*
X47837299Y-42252390D01*
X47703569Y-42448110D01*
X47652560Y-42700000D01*
X47652560Y-43800000D01*
X47696838Y-44035317D01*
X47835910Y-44251441D01*
X47837299Y-44252390D01*
X47760356Y-44365000D01*
X46250005Y-44365000D01*
X46250000Y-44364999D01*
X45967516Y-44421190D01*
X45911325Y-44432367D01*
X45624210Y-44624210D01*
X45624208Y-44624213D01*
X44633420Y-45615000D01*
X44511431Y-45615000D01*
X44450000Y-45602560D01*
X43550000Y-45602560D01*
X43314683Y-45646838D01*
X43098559Y-45785910D01*
X42953569Y-45998110D01*
X42929004Y-46119417D01*
X41124210Y-47924210D01*
X40932367Y-48211325D01*
X40932367Y-48211326D01*
X40864999Y-48550000D01*
X40865000Y-48550005D01*
X40865000Y-57749995D01*
X40864999Y-57750000D01*
X40901831Y-57935162D01*
X40932367Y-58088675D01*
X40990048Y-58175001D01*
X41124210Y-58375790D01*
X41874208Y-59125787D01*
X41874210Y-59125790D01*
X42123250Y-59292192D01*
X42161325Y-59317633D01*
X42500000Y-59385001D01*
X42500005Y-59385000D01*
X65693178Y-59385000D01*
X65813201Y-59434838D01*
X66185167Y-59435162D01*
X66528943Y-59293117D01*
X66792192Y-59030327D01*
X66934838Y-58686799D01*
X66935162Y-58314833D01*
X66793117Y-57971057D01*
X66530327Y-57707808D01*
X66186799Y-57565162D01*
X66134944Y-57565117D01*
X66135197Y-57275225D01*
X65962767Y-56857914D01*
X65643765Y-56538355D01*
X65394860Y-56435000D01*
X66326309Y-56435000D01*
X66559698Y-56338327D01*
X66738327Y-56159699D01*
X66835000Y-55926310D01*
X66835000Y-55535750D01*
X66676250Y-55377000D01*
X65077000Y-55377000D01*
X65077000Y-55397000D01*
X64823000Y-55397000D01*
X64823000Y-55377000D01*
X64803000Y-55377000D01*
X64803000Y-55123000D01*
X64823000Y-55123000D01*
X64823000Y-53377000D01*
X65077000Y-53377000D01*
X65077000Y-55123000D01*
X66676250Y-55123000D01*
X66835000Y-54964250D01*
X66835000Y-54573690D01*
X66738327Y-54340301D01*
X66648025Y-54250000D01*
X66738327Y-54159699D01*
X66835000Y-53926310D01*
X66835000Y-53535750D01*
X66676250Y-53377000D01*
X65077000Y-53377000D01*
X64823000Y-53377000D01*
X63223750Y-53377000D01*
X63065000Y-53535750D01*
X63065000Y-53926310D01*
X63161673Y-54159699D01*
X63251975Y-54250000D01*
X63161673Y-54340301D01*
X63065000Y-54573690D01*
X63065000Y-54959868D01*
X62552566Y-54447434D01*
X62486308Y-54403162D01*
X62184346Y-54201397D01*
X61750000Y-54115000D01*
X51353310Y-54115000D01*
X51396431Y-54051890D01*
X51447440Y-53800000D01*
X51447440Y-52700000D01*
X51403162Y-52464683D01*
X51264090Y-52248559D01*
X51262701Y-52247610D01*
X51396431Y-52051890D01*
X51447440Y-51800000D01*
X51447440Y-50700000D01*
X51403162Y-50464683D01*
X51264090Y-50248559D01*
X51262701Y-50247610D01*
X51396431Y-50051890D01*
X51447440Y-49800000D01*
X51447440Y-48700000D01*
X51403162Y-48464683D01*
X51264090Y-48248559D01*
X51262701Y-48247610D01*
X51396431Y-48051890D01*
X51447440Y-47800000D01*
X51447440Y-46935167D01*
X53814838Y-46935167D01*
X53956883Y-47278943D01*
X54219673Y-47542192D01*
X54563201Y-47684838D01*
X54935167Y-47685162D01*
X55056569Y-47635000D01*
X57883420Y-47635000D01*
X59657255Y-49408834D01*
X59706883Y-49528943D01*
X59969673Y-49792192D01*
X60313201Y-49934838D01*
X60685167Y-49935162D01*
X61028943Y-49793117D01*
X61292192Y-49530327D01*
X61434838Y-49186799D01*
X61435162Y-48814833D01*
X61293117Y-48471057D01*
X61030327Y-48207808D01*
X60909013Y-48157434D01*
X58875790Y-46124210D01*
X58791116Y-46067633D01*
X58588675Y-45932367D01*
X58532484Y-45921190D01*
X58250000Y-45864999D01*
X58249995Y-45865000D01*
X55056822Y-45865000D01*
X54936799Y-45815162D01*
X54564833Y-45814838D01*
X54221057Y-45956883D01*
X53957808Y-46219673D01*
X53815162Y-46563201D01*
X53814838Y-46935167D01*
X51447440Y-46935167D01*
X51447440Y-46700000D01*
X51403162Y-46464683D01*
X51264090Y-46248559D01*
X51262701Y-46247610D01*
X51396431Y-46051890D01*
X51447440Y-45800000D01*
X51447440Y-44700000D01*
X51403162Y-44464683D01*
X51264090Y-44248559D01*
X51262701Y-44247610D01*
X51396431Y-44051890D01*
X51447440Y-43800000D01*
X51447440Y-42700000D01*
X51403162Y-42464683D01*
X51264090Y-42248559D01*
X51262701Y-42247610D01*
X51396431Y-42051890D01*
X51447440Y-41800000D01*
X51447440Y-40710000D01*
X63052560Y-40710000D01*
X63052560Y-41800000D01*
X63096838Y-42035317D01*
X63235910Y-42251441D01*
X63237299Y-42252390D01*
X63103569Y-42448110D01*
X63052560Y-42700000D01*
X63052560Y-43800000D01*
X63096838Y-44035317D01*
X63235910Y-44251441D01*
X63237299Y-44252390D01*
X63103569Y-44448110D01*
X63100149Y-44465000D01*
X63000000Y-44465000D01*
X62699593Y-44524755D01*
X62639507Y-44564903D01*
X62564833Y-44564838D01*
X62221057Y-44706883D01*
X61957808Y-44969673D01*
X61815162Y-45313201D01*
X61814838Y-45685167D01*
X61956883Y-46028943D01*
X62219673Y-46292192D01*
X62563201Y-46434838D01*
X62935167Y-46435162D01*
X63182142Y-46333114D01*
X63103569Y-46448110D01*
X63093859Y-46496059D01*
X62949594Y-46524755D01*
X62694921Y-46694921D01*
X62574995Y-46814847D01*
X62564833Y-46814838D01*
X62221057Y-46956883D01*
X61957808Y-47219673D01*
X61815162Y-47563201D01*
X61814838Y-47935167D01*
X61956883Y-48278943D01*
X62219673Y-48542192D01*
X62563201Y-48684838D01*
X62935167Y-48685162D01*
X63066559Y-48630872D01*
X63052560Y-48700000D01*
X63052560Y-49800000D01*
X63096838Y-50035317D01*
X63235910Y-50251441D01*
X63237299Y-50252390D01*
X63103569Y-50448110D01*
X63052560Y-50700000D01*
X63052560Y-51800000D01*
X63096838Y-52035317D01*
X63235910Y-52251441D01*
X63244598Y-52257377D01*
X63161673Y-52340301D01*
X63065000Y-52573690D01*
X63065000Y-52964250D01*
X63223750Y-53123000D01*
X64823000Y-53123000D01*
X64823000Y-53103000D01*
X65077000Y-53103000D01*
X65077000Y-53123000D01*
X66676250Y-53123000D01*
X66835000Y-52964250D01*
X66835000Y-52573690D01*
X66738327Y-52340301D01*
X66655774Y-52257748D01*
X66739644Y-52135000D01*
X67693178Y-52135000D01*
X67813201Y-52184838D01*
X68185167Y-52185162D01*
X68528943Y-52043117D01*
X68792192Y-51780327D01*
X68934838Y-51436799D01*
X68935162Y-51064833D01*
X68793117Y-50721057D01*
X68530327Y-50457808D01*
X68186799Y-50315162D01*
X67814833Y-50314838D01*
X67693431Y-50365000D01*
X66739018Y-50365000D01*
X66664090Y-50248559D01*
X66662701Y-50247610D01*
X66705481Y-50185000D01*
X69402710Y-50185000D01*
X71517729Y-52300019D01*
X71485907Y-52460000D01*
X71598946Y-53028285D01*
X71920853Y-53510054D01*
X72250026Y-53730000D01*
X71920853Y-53949946D01*
X71810568Y-54115000D01*
X70250005Y-54115000D01*
X70250000Y-54114999D01*
X69911325Y-54182367D01*
X69624210Y-54374210D01*
X69624208Y-54374213D01*
X67841164Y-56157256D01*
X67721057Y-56206883D01*
X67457808Y-56469673D01*
X67315162Y-56813201D01*
X67314838Y-57185167D01*
X67456883Y-57528943D01*
X67719673Y-57792192D01*
X68063201Y-57934838D01*
X68435167Y-57935162D01*
X68699964Y-57825750D01*
X71515000Y-57825750D01*
X71515000Y-58516310D01*
X71611673Y-58749699D01*
X71790302Y-58928327D01*
X72023691Y-59025000D01*
X72714250Y-59025000D01*
X72873000Y-58866250D01*
X72873000Y-57667000D01*
X71673750Y-57667000D01*
X71515000Y-57825750D01*
X68699964Y-57825750D01*
X68778943Y-57793117D01*
X69042192Y-57530327D01*
X69092566Y-57409014D01*
X70616579Y-55885000D01*
X71810568Y-55885000D01*
X71920853Y-56050054D01*
X71964777Y-56079403D01*
X71790302Y-56151673D01*
X71611673Y-56330301D01*
X71515000Y-56563690D01*
X71515000Y-57254250D01*
X71673750Y-57413000D01*
X72873000Y-57413000D01*
X72873000Y-57393000D01*
X73127000Y-57393000D01*
X73127000Y-57413000D01*
X73147000Y-57413000D01*
X73147000Y-57667000D01*
X73127000Y-57667000D01*
X73127000Y-58866250D01*
X73285750Y-59025000D01*
X73976309Y-59025000D01*
X74209698Y-58928327D01*
X74290000Y-58848025D01*
X74290000Y-65054868D01*
X73432566Y-64197434D01*
X73396163Y-64173110D01*
X73064346Y-63951397D01*
X72630000Y-63865000D01*
X72270854Y-63865000D01*
X72233162Y-63664683D01*
X72165000Y-63558756D01*
X72165000Y-62030000D01*
X72078603Y-61595654D01*
X71999286Y-61476948D01*
X71978162Y-61364683D01*
X71911671Y-61261354D01*
X71913327Y-61259698D01*
X72010000Y-61026309D01*
X72010000Y-60785750D01*
X71851250Y-60627000D01*
X71127000Y-60627000D01*
X71127000Y-60647000D01*
X70873000Y-60647000D01*
X70873000Y-60627000D01*
X70148750Y-60627000D01*
X69990000Y-60785750D01*
X69990000Y-61026309D01*
X70086673Y-61259698D01*
X70088043Y-61261068D01*
X70028569Y-61348110D01*
X69998917Y-61494536D01*
X69951397Y-61565655D01*
X69865000Y-62000000D01*
X69895000Y-62150819D01*
X69895000Y-63558203D01*
X69833569Y-63648110D01*
X69782560Y-63900000D01*
X69782560Y-66100000D01*
X69826838Y-66335317D01*
X69965910Y-66551441D01*
X70178110Y-66696431D01*
X70430000Y-66747440D01*
X71630000Y-66747440D01*
X71865317Y-66703162D01*
X72081441Y-66564090D01*
X72226431Y-66351890D01*
X72251746Y-66226878D01*
X72341824Y-66316956D01*
X71989457Y-66844313D01*
X71865000Y-67470000D01*
X71865000Y-67501737D01*
X71776310Y-67465000D01*
X68773690Y-67465000D01*
X68750000Y-67474813D01*
X68726310Y-67465000D01*
X65723690Y-67465000D01*
X65490301Y-67561673D01*
X65311673Y-67740302D01*
X65215000Y-67973691D01*
X65215000Y-71276309D01*
X65224813Y-71300000D01*
X65215000Y-71323691D01*
X65215000Y-74626309D01*
X65311673Y-74859698D01*
X65490301Y-75038327D01*
X65723690Y-75135000D01*
X68726310Y-75135000D01*
X68750000Y-75125187D01*
X68773690Y-75135000D01*
X70862763Y-75135000D01*
X68597762Y-77400000D01*
X65075211Y-77400000D01*
X64690158Y-77014274D01*
X63813887Y-76650415D01*
X62865075Y-76649587D01*
X61988171Y-77011916D01*
X61316674Y-77682242D01*
X60952815Y-78558513D01*
X60952336Y-79107825D01*
X57695160Y-82365000D01*
X51927239Y-82365000D01*
X50978018Y-81415779D01*
X51142723Y-81413641D01*
X51962036Y-81074271D01*
X52152323Y-80729528D01*
X50637400Y-79214605D01*
X50623258Y-79228748D01*
X50443653Y-79049143D01*
X50457795Y-79035000D01*
X50817005Y-79035000D01*
X52331928Y-80549923D01*
X52676671Y-80359636D01*
X53028356Y-79478409D01*
X53016041Y-78529677D01*
X52676671Y-77710364D01*
X52331928Y-77520077D01*
X50817005Y-79035000D01*
X50457795Y-79035000D01*
X48942872Y-77520077D01*
X48598129Y-77710364D01*
X48246444Y-78591591D01*
X48247662Y-78685422D01*
X47385000Y-77822760D01*
X47385000Y-77340472D01*
X49122477Y-77340472D01*
X50637400Y-78855395D01*
X52152323Y-77340472D01*
X51962036Y-76995729D01*
X51080809Y-76644044D01*
X50132077Y-76656359D01*
X49312764Y-76995729D01*
X49122477Y-77340472D01*
X47385000Y-77340472D01*
X47385000Y-75487908D01*
X47498690Y-75535000D01*
X47714250Y-75535000D01*
X47873000Y-75376250D01*
X47873000Y-74627000D01*
X48127000Y-74627000D01*
X48127000Y-75376250D01*
X48285750Y-75535000D01*
X48501310Y-75535000D01*
X48734699Y-75438327D01*
X48913327Y-75259698D01*
X49010000Y-75026309D01*
X49010000Y-74785750D01*
X48851250Y-74627000D01*
X48127000Y-74627000D01*
X47873000Y-74627000D01*
X47853000Y-74627000D01*
X47853000Y-74373000D01*
X47873000Y-74373000D01*
X47873000Y-74353000D01*
X48127000Y-74353000D01*
X48127000Y-74373000D01*
X48851250Y-74373000D01*
X49010000Y-74214250D01*
X49010000Y-73973691D01*
X48913327Y-73740302D01*
X48911957Y-73738932D01*
X48971431Y-73651890D01*
X48992425Y-73548218D01*
X49108603Y-73374346D01*
X49110843Y-73363083D01*
X49903878Y-74156117D01*
X49903880Y-74156120D01*
X50082134Y-74275225D01*
X50434313Y-74510543D01*
X51060000Y-74635001D01*
X51060005Y-74635000D01*
X58891853Y-74635000D01*
X59027517Y-75317029D01*
X59490327Y-76009673D01*
X60182971Y-76472483D01*
X61000000Y-76635000D01*
X62500000Y-76635000D01*
X63317029Y-76472483D01*
X64009673Y-76009673D01*
X64472483Y-75317029D01*
X64635000Y-74500000D01*
X64635000Y-71500000D01*
X64472483Y-70682971D01*
X64009673Y-69990327D01*
X63317029Y-69527517D01*
X62500000Y-69365000D01*
X61100010Y-69365000D01*
X60282981Y-69527517D01*
X59590337Y-69990327D01*
X59127527Y-70682971D01*
X59036842Y-71138878D01*
X59027517Y-71152833D01*
X58985314Y-71365000D01*
X51737239Y-71365000D01*
X50157990Y-69785750D01*
X54965000Y-69785750D01*
X54965000Y-70001310D01*
X55061673Y-70234699D01*
X55240302Y-70413327D01*
X55473691Y-70510000D01*
X55714250Y-70510000D01*
X55873000Y-70351250D01*
X55873000Y-69627000D01*
X55123750Y-69627000D01*
X54965000Y-69785750D01*
X50157990Y-69785750D01*
X49307440Y-68935200D01*
X49307440Y-68900000D01*
X49263162Y-68664683D01*
X49124090Y-68448559D01*
X48911890Y-68303569D01*
X48823898Y-68285750D01*
X54965000Y-68285750D01*
X54965000Y-68501310D01*
X55061673Y-68734699D01*
X55076974Y-68750000D01*
X55061673Y-68765301D01*
X54965000Y-68998690D01*
X54965000Y-69214250D01*
X55123750Y-69373000D01*
X55873000Y-69373000D01*
X55873000Y-68127000D01*
X55123750Y-68127000D01*
X54965000Y-68285750D01*
X48823898Y-68285750D01*
X48660000Y-68252560D01*
X47460000Y-68252560D01*
X47224683Y-68296838D01*
X47008559Y-68435910D01*
X46863569Y-68648110D01*
X46812560Y-68900000D01*
X46812560Y-68980550D01*
X46549457Y-69374312D01*
X46424999Y-70000000D01*
X46549457Y-70625688D01*
X46812560Y-71019450D01*
X46812560Y-71100000D01*
X46856838Y-71335317D01*
X46925000Y-71441244D01*
X46925000Y-72372136D01*
X46906120Y-72343880D01*
X46745957Y-72236863D01*
X46552567Y-71947434D01*
X44747440Y-70142308D01*
X44747440Y-68900000D01*
X44703162Y-68664683D01*
X44564090Y-68448559D01*
X44351890Y-68303569D01*
X44100000Y-68252560D01*
X42900000Y-68252560D01*
X42664683Y-68296838D01*
X42448559Y-68435910D01*
X42303569Y-68648110D01*
X42252560Y-68900000D01*
X42252560Y-71100000D01*
X42296838Y-71335317D01*
X42435910Y-71551441D01*
X42515000Y-71605481D01*
X42515000Y-72415116D01*
X42477560Y-72600000D01*
X42477560Y-73400000D01*
X42521838Y-73635317D01*
X42588329Y-73738646D01*
X42586673Y-73740302D01*
X42490000Y-73973691D01*
X42490000Y-74214250D01*
X42648750Y-74373000D01*
X43373000Y-74373000D01*
X43373000Y-74353000D01*
X43627000Y-74353000D01*
X43627000Y-74373000D01*
X43647000Y-74373000D01*
X43647000Y-74627000D01*
X43627000Y-74627000D01*
X43627000Y-75376250D01*
X43785750Y-75535000D01*
X44001310Y-75535000D01*
X44115000Y-75487908D01*
X44115000Y-78499995D01*
X44114999Y-78500000D01*
X44239457Y-79125688D01*
X44593880Y-79656120D01*
X50093878Y-85156117D01*
X50093880Y-85156120D01*
X50624313Y-85510543D01*
X51250000Y-85635001D01*
X51250005Y-85635000D01*
X58372395Y-85635000D01*
X58372400Y-85635001D01*
X58998088Y-85510543D01*
X59528520Y-85156120D01*
X63264702Y-81419937D01*
X63809725Y-81420413D01*
X64686629Y-81058084D01*
X65075391Y-80670000D01*
X69274997Y-80670000D01*
X69275002Y-80670001D01*
X69900690Y-80545543D01*
X70431122Y-80191120D01*
X74290000Y-76332241D01*
X74290000Y-129794561D01*
X68608670Y-138790000D01*
X44471422Y-138790000D01*
X43453867Y-136373305D01*
X44614674Y-136373305D01*
X44901043Y-137066372D01*
X45430839Y-137597093D01*
X46123405Y-137884672D01*
X46873305Y-137885326D01*
X47566372Y-137598957D01*
X48097093Y-137069161D01*
X48384672Y-136376595D01*
X48384674Y-136373305D01*
X64614674Y-136373305D01*
X64901043Y-137066372D01*
X65430839Y-137597093D01*
X66123405Y-137884672D01*
X66873305Y-137885326D01*
X67566372Y-137598957D01*
X68097093Y-137069161D01*
X68384672Y-136376595D01*
X68385326Y-135626695D01*
X68098957Y-134933628D01*
X67569161Y-134402907D01*
X66876595Y-134115328D01*
X66126695Y-134114674D01*
X65433628Y-134401043D01*
X64902907Y-134930839D01*
X64615328Y-135623405D01*
X64614674Y-136373305D01*
X48384674Y-136373305D01*
X48385326Y-135626695D01*
X48098957Y-134933628D01*
X47569161Y-134402907D01*
X46876595Y-134115328D01*
X46126695Y-134114674D01*
X45433628Y-134401043D01*
X44902907Y-134930839D01*
X44615328Y-135623405D01*
X44614674Y-136373305D01*
X43453867Y-136373305D01*
X40710000Y-129856623D01*
X40710000Y-117078474D01*
X42153294Y-117078474D01*
X42597053Y-118152452D01*
X43418026Y-118974860D01*
X44491228Y-119420492D01*
X45653274Y-119421506D01*
X46727252Y-118977747D01*
X47549660Y-118156774D01*
X47995292Y-117083572D01*
X47995296Y-117078474D01*
X65978494Y-117078474D01*
X66422253Y-118152452D01*
X67243226Y-118974860D01*
X68316428Y-119420492D01*
X69478474Y-119421506D01*
X70552452Y-118977747D01*
X71374860Y-118156774D01*
X71820492Y-117083572D01*
X71821506Y-115921526D01*
X71377747Y-114847548D01*
X70556774Y-114025140D01*
X69483572Y-113579508D01*
X68321526Y-113578494D01*
X67247548Y-114022253D01*
X66425140Y-114843226D01*
X65979508Y-115916428D01*
X65978494Y-117078474D01*
X47995296Y-117078474D01*
X47996306Y-115921526D01*
X47552547Y-114847548D01*
X46731574Y-114025140D01*
X45658372Y-113579508D01*
X44496326Y-113578494D01*
X43422348Y-114022253D01*
X42599940Y-114843226D01*
X42154308Y-115916428D01*
X42153294Y-117078474D01*
X40710000Y-117078474D01*
X40710000Y-94853474D01*
X42153294Y-94853474D01*
X42597053Y-95927452D01*
X43418026Y-96749860D01*
X44491228Y-97195492D01*
X45653274Y-97196506D01*
X46727252Y-96752747D01*
X47549660Y-95931774D01*
X47995292Y-94858572D01*
X47995296Y-94853474D01*
X65978494Y-94853474D01*
X66422253Y-95927452D01*
X67243226Y-96749860D01*
X68316428Y-97195492D01*
X69478474Y-97196506D01*
X70552452Y-96752747D01*
X71374860Y-95931774D01*
X71820492Y-94858572D01*
X71821506Y-93696526D01*
X71377747Y-92622548D01*
X70556774Y-91800140D01*
X69483572Y-91354508D01*
X68321526Y-91353494D01*
X67247548Y-91797253D01*
X66425140Y-92618226D01*
X65979508Y-93691428D01*
X65978494Y-94853474D01*
X47995296Y-94853474D01*
X47996306Y-93696526D01*
X47552547Y-92622548D01*
X46731574Y-91800140D01*
X45658372Y-91354508D01*
X44496326Y-91353494D01*
X43422348Y-91797253D01*
X42599940Y-92618226D01*
X42154308Y-93691428D01*
X42153294Y-94853474D01*
X40710000Y-94853474D01*
X40710000Y-74785750D01*
X42490000Y-74785750D01*
X42490000Y-75026309D01*
X42586673Y-75259698D01*
X42765301Y-75438327D01*
X42998690Y-75535000D01*
X43214250Y-75535000D01*
X43373000Y-75376250D01*
X43373000Y-74627000D01*
X42648750Y-74627000D01*
X42490000Y-74785750D01*
X40710000Y-74785750D01*
X40710000Y-60373691D01*
X42245000Y-60373691D01*
X42245000Y-63676309D01*
X42254813Y-63700000D01*
X42245000Y-63723691D01*
X42245000Y-67026309D01*
X42341673Y-67259698D01*
X42520301Y-67438327D01*
X42753690Y-67535000D01*
X45756310Y-67535000D01*
X45780000Y-67525187D01*
X45803690Y-67535000D01*
X48806310Y-67535000D01*
X48893969Y-67498690D01*
X54965000Y-67498690D01*
X54965000Y-67714250D01*
X55123750Y-67873000D01*
X55873000Y-67873000D01*
X55873000Y-67148750D01*
X55714250Y-66990000D01*
X55473691Y-66990000D01*
X55240302Y-67086673D01*
X55061673Y-67265301D01*
X54965000Y-67498690D01*
X48893969Y-67498690D01*
X49039699Y-67438327D01*
X49218327Y-67259698D01*
X49315000Y-67026309D01*
X49315000Y-64298691D01*
X54990000Y-64298691D01*
X54990000Y-64328750D01*
X55148750Y-64487500D01*
X55164475Y-64487500D01*
X55086673Y-64565302D01*
X55009404Y-64751846D01*
X54990000Y-64771250D01*
X54990000Y-64828750D01*
X55009404Y-64848154D01*
X55086673Y-65034698D01*
X55164475Y-65112500D01*
X55148750Y-65112500D01*
X54990000Y-65271250D01*
X54990000Y-65301309D01*
X55086673Y-65534698D01*
X55265301Y-65713327D01*
X55498690Y-65810000D01*
X55566250Y-65810000D01*
X55725000Y-65651250D01*
X55725000Y-65625000D01*
X55925000Y-65625000D01*
X55925000Y-65651250D01*
X56083750Y-65810000D01*
X56125000Y-65810000D01*
X56125000Y-65825000D01*
X55398750Y-65825000D01*
X55240000Y-65983750D01*
X55240000Y-66051309D01*
X55336673Y-66284698D01*
X55515301Y-66463327D01*
X55748690Y-66560000D01*
X55778750Y-66560000D01*
X55937500Y-66401250D01*
X55937500Y-66385526D01*
X56015301Y-66463327D01*
X56201847Y-66540597D01*
X56221250Y-66560000D01*
X56240000Y-66560000D01*
X56240000Y-67035750D01*
X56127000Y-67148750D01*
X56127000Y-67873000D01*
X56147000Y-67873000D01*
X56147000Y-68127000D01*
X56127000Y-68127000D01*
X56127000Y-69373000D01*
X56147000Y-69373000D01*
X56147000Y-69627000D01*
X56127000Y-69627000D01*
X56127000Y-70351250D01*
X56285750Y-70510000D01*
X56526309Y-70510000D01*
X56759698Y-70413327D01*
X56761068Y-70411957D01*
X56848110Y-70471431D01*
X57100000Y-70522440D01*
X57900000Y-70522440D01*
X58135317Y-70478162D01*
X58351441Y-70339090D01*
X58496431Y-70126890D01*
X58547440Y-69875000D01*
X58547440Y-69125000D01*
X58503162Y-68889683D01*
X58412810Y-68749273D01*
X58496431Y-68626890D01*
X58547440Y-68375000D01*
X58547440Y-68299850D01*
X60912290Y-65935000D01*
X65222560Y-65935000D01*
X65222560Y-66100000D01*
X65266838Y-66335317D01*
X65405910Y-66551441D01*
X65618110Y-66696431D01*
X65870000Y-66747440D01*
X67070000Y-66747440D01*
X67305317Y-66703162D01*
X67521441Y-66564090D01*
X67666431Y-66351890D01*
X67717440Y-66100000D01*
X67717440Y-63900000D01*
X67673162Y-63664683D01*
X67605000Y-63558756D01*
X67605000Y-62150820D01*
X67635000Y-62000000D01*
X67548603Y-61565654D01*
X67503188Y-61497686D01*
X67478162Y-61364683D01*
X67411671Y-61261354D01*
X67413327Y-61259698D01*
X67510000Y-61026309D01*
X67510000Y-60785750D01*
X67351250Y-60627000D01*
X66627000Y-60627000D01*
X66627000Y-60647000D01*
X66373000Y-60647000D01*
X66373000Y-60627000D01*
X65648750Y-60627000D01*
X65490000Y-60785750D01*
X65490000Y-60865000D01*
X65125990Y-60865000D01*
X64900225Y-60864803D01*
X64482914Y-61037233D01*
X64163355Y-61356235D01*
X63990197Y-61773244D01*
X63989803Y-62224775D01*
X64162233Y-62642086D01*
X64481235Y-62961645D01*
X64898244Y-63134803D01*
X65335000Y-63135184D01*
X65335000Y-63558203D01*
X65273569Y-63648110D01*
X65222560Y-63900000D01*
X65222560Y-64065000D01*
X62934857Y-64065000D01*
X62935162Y-63714833D01*
X62819473Y-63434843D01*
X63185167Y-63435162D01*
X63528943Y-63293117D01*
X63792192Y-63030327D01*
X63934838Y-62686799D01*
X63935162Y-62314833D01*
X63793117Y-61971057D01*
X63530327Y-61707808D01*
X63186799Y-61565162D01*
X62814833Y-61564838D01*
X62471057Y-61706883D01*
X62437882Y-61740000D01*
X62300000Y-61740000D01*
X62009161Y-61797852D01*
X61762599Y-61962599D01*
X61185198Y-62540000D01*
X59614803Y-62540000D01*
X59137401Y-62062599D01*
X58890839Y-61897852D01*
X58600000Y-61840000D01*
X56300000Y-61840000D01*
X56009161Y-61897852D01*
X55762599Y-62062599D01*
X55462599Y-62362599D01*
X55297852Y-62609161D01*
X55240000Y-62900000D01*
X55240000Y-63613569D01*
X55227560Y-63675000D01*
X55227560Y-63924414D01*
X55086673Y-64065302D01*
X54990000Y-64298691D01*
X49315000Y-64298691D01*
X49315000Y-63723691D01*
X49305187Y-63700000D01*
X49315000Y-63676309D01*
X49315000Y-60373691D01*
X49218327Y-60140302D01*
X49051717Y-59973691D01*
X65490000Y-59973691D01*
X65490000Y-60214250D01*
X65648750Y-60373000D01*
X66373000Y-60373000D01*
X66373000Y-59623750D01*
X66627000Y-59623750D01*
X66627000Y-60373000D01*
X67351250Y-60373000D01*
X67510000Y-60214250D01*
X67510000Y-59973691D01*
X69990000Y-59973691D01*
X69990000Y-60214250D01*
X70148750Y-60373000D01*
X70873000Y-60373000D01*
X70873000Y-59623750D01*
X71127000Y-59623750D01*
X71127000Y-60373000D01*
X71851250Y-60373000D01*
X72010000Y-60214250D01*
X72010000Y-59973691D01*
X71913327Y-59740302D01*
X71734699Y-59561673D01*
X71501310Y-59465000D01*
X71285750Y-59465000D01*
X71127000Y-59623750D01*
X70873000Y-59623750D01*
X70714250Y-59465000D01*
X70498690Y-59465000D01*
X70265301Y-59561673D01*
X70086673Y-59740302D01*
X69990000Y-59973691D01*
X67510000Y-59973691D01*
X67413327Y-59740302D01*
X67234699Y-59561673D01*
X67001310Y-59465000D01*
X66785750Y-59465000D01*
X66627000Y-59623750D01*
X66373000Y-59623750D01*
X66214250Y-59465000D01*
X65998690Y-59465000D01*
X65765301Y-59561673D01*
X65586673Y-59740302D01*
X65490000Y-59973691D01*
X49051717Y-59973691D01*
X49039699Y-59961673D01*
X48806310Y-59865000D01*
X45803690Y-59865000D01*
X45780000Y-59874813D01*
X45756310Y-59865000D01*
X42753690Y-59865000D01*
X42520301Y-59961673D01*
X42341673Y-60140302D01*
X42245000Y-60373691D01*
X40710000Y-60373691D01*
X40710000Y-43373305D01*
X41114674Y-43373305D01*
X41401043Y-44066372D01*
X41930839Y-44597093D01*
X42623405Y-44884672D01*
X43373305Y-44885326D01*
X44066372Y-44598957D01*
X44597093Y-44069161D01*
X44884672Y-43376595D01*
X44885326Y-42626695D01*
X44598957Y-41933628D01*
X44069161Y-41402907D01*
X43376595Y-41115328D01*
X42626695Y-41114674D01*
X41933628Y-41401043D01*
X41402907Y-41930839D01*
X41115328Y-42623405D01*
X41114674Y-43373305D01*
X40710000Y-43373305D01*
X40710000Y-40710000D01*
X47652560Y-40710000D01*
X47652560Y-41800000D01*
G36*
X47835910Y-52251441D02*
X47837299Y-52252390D01*
X47760356Y-52365000D01*
X47556822Y-52365000D01*
X47436799Y-52315162D01*
X47064833Y-52314838D01*
X46721057Y-52456883D01*
X46457808Y-52719673D01*
X46315162Y-53063201D01*
X46314838Y-53435167D01*
X46456883Y-53778943D01*
X46719673Y-54042192D01*
X47063201Y-54184838D01*
X47435167Y-54185162D01*
X47556569Y-54135000D01*
X47760982Y-54135000D01*
X47835910Y-54251441D01*
X47837299Y-54252390D01*
X47703569Y-54448110D01*
X47652560Y-54700000D01*
X47652560Y-55800000D01*
X47696838Y-56035317D01*
X47835910Y-56251441D01*
X47931598Y-56316822D01*
X47843420Y-56405000D01*
X45633920Y-56405000D01*
X45613162Y-56294683D01*
X45474090Y-56078559D01*
X45261890Y-55933569D01*
X45010000Y-55882560D01*
X45005166Y-55882560D01*
X45049159Y-55728764D01*
X44250000Y-54929605D01*
X44235858Y-54943748D01*
X44056253Y-54764143D01*
X44070395Y-54750000D01*
X44429605Y-54750000D01*
X45228764Y-55549159D01*
X45470742Y-55479941D01*
X45657155Y-54957220D01*
X45629341Y-54402951D01*
X45470742Y-54020059D01*
X45228764Y-53950841D01*
X44429605Y-54750000D01*
X44070395Y-54750000D01*
X44056253Y-54735858D01*
X44235858Y-54556253D01*
X44250000Y-54570395D01*
X45049159Y-53771236D01*
X44979941Y-53529258D01*
X44835138Y-53477618D01*
X45039172Y-53393313D01*
X45431934Y-53001236D01*
X45644758Y-52488700D01*
X45645066Y-52135000D01*
X47760982Y-52135000D01*
X47835910Y-52251441D01*
X47835910Y-52251441D01*
G37*
X47835910Y-52251441D02*
X47837299Y-52252390D01*
X47760356Y-52365000D01*
X47556822Y-52365000D01*
X47436799Y-52315162D01*
X47064833Y-52314838D01*
X46721057Y-52456883D01*
X46457808Y-52719673D01*
X46315162Y-53063201D01*
X46314838Y-53435167D01*
X46456883Y-53778943D01*
X46719673Y-54042192D01*
X47063201Y-54184838D01*
X47435167Y-54185162D01*
X47556569Y-54135000D01*
X47760982Y-54135000D01*
X47835910Y-54251441D01*
X47837299Y-54252390D01*
X47703569Y-54448110D01*
X47652560Y-54700000D01*
X47652560Y-55800000D01*
X47696838Y-56035317D01*
X47835910Y-56251441D01*
X47931598Y-56316822D01*
X47843420Y-56405000D01*
X45633920Y-56405000D01*
X45613162Y-56294683D01*
X45474090Y-56078559D01*
X45261890Y-55933569D01*
X45010000Y-55882560D01*
X45005166Y-55882560D01*
X45049159Y-55728764D01*
X44250000Y-54929605D01*
X44235858Y-54943748D01*
X44056253Y-54764143D01*
X44070395Y-54750000D01*
X44429605Y-54750000D01*
X45228764Y-55549159D01*
X45470742Y-55479941D01*
X45657155Y-54957220D01*
X45629341Y-54402951D01*
X45470742Y-54020059D01*
X45228764Y-53950841D01*
X44429605Y-54750000D01*
X44070395Y-54750000D01*
X44056253Y-54735858D01*
X44235858Y-54556253D01*
X44250000Y-54570395D01*
X45049159Y-53771236D01*
X44979941Y-53529258D01*
X44835138Y-53477618D01*
X45039172Y-53393313D01*
X45431934Y-53001236D01*
X45644758Y-52488700D01*
X45645066Y-52135000D01*
X47760982Y-52135000D01*
X47835910Y-52251441D01*
M02*
